<?xml version="1.0" encoding="UTF-8" standalone="no"?>
<!-- Created with Inkscape (http://www.inkscape.org/) -->

<svg
   width="190.76459mm"
   height="187.325mm"
   viewBox="0 0 190.76459 187.325"
   version="1.1"
   id="svg5"
   xml:space="preserve"
   inkscape:version="1.2.2 (b0a8486541, 2022-12-01)"
   sodipodi:docname="drawing.svg"
   xmlns:inkscape="http://www.inkscape.org/namespaces/inkscape"
   xmlns:sodipodi="http://sodipodi.sourceforge.net/DTD/sodipodi-0.dtd"
   xmlns="http://www.w3.org/2000/svg"
   xmlns:svg="http://www.w3.org/2000/svg"><sodipodi:namedview
     id="namedview7"
     pagecolor="#505050"
     bordercolor="#eeeeee"
     borderopacity="1"
     inkscape:showpageshadow="0"
     inkscape:pageopacity="0"
     inkscape:pagecheckerboard="0"
     inkscape:deskcolor="#505050"
     inkscape:document-units="mm"
     showgrid="false"
     inkscape:zoom="0.91717543"
     inkscape:cx="337.44908"
     inkscape:cy="353.80363"
     inkscape:window-width="1920"
     inkscape:window-height="999"
     inkscape:window-x="0"
     inkscape:window-y="0"
     inkscape:window-maximized="1"
     inkscape:current-layer="layer1" /><defs
     id="defs2" /><g
     inkscape:label="Layer 1"
     inkscape:groupmode="layer"
     id="layer1"
     transform="translate(-72.998632,3.882582)"><g
       id="g125"
       transform="translate(-93.533918,9.410411)"><path
         style="fill:#fcfcfc;stroke-width:0.264583"
         d="m 203.36535,173.62507 c -0.29296,-0.33217 -2.86274,-0.38681 -18.19011,-0.38681 H 167.3263 V 86.599204 -0.0398482 l 0.8599,-0.13573231 c 0.47294,-0.074653 4.84849,-0.85182979 9.72343,-1.72705949 15.33264,-2.7527634 19.74001,-3.271025 27.91355,-3.2823428 6.04575,-0.00837 9.26414,0.2665354 13.75833,1.1752024 27.66987,5.59449 42.53858,31.4230314 44.84293,77.8969954 0.32376,6.529629 0.50832,8.094676 1.62244,13.758334 3.46588,17.618911 9.35809,30.093061 17.98897,38.083731 11.3069,10.4682 33.00644,24.39267 46.1415,29.60873 6.66842,2.6481 11.0931,3.47701 16.31816,3.05699 3.41124,-0.27421 5.59731,-0.74727 8.29628,-1.79528 l 1.97618,-0.76736 v 9.09982 9.09983 l -76.53073,-0.0101 c -66.80171,-0.009 -76.5741,-0.0592 -76.87189,-0.39687 z M 349.09506,-11.194158 c -3.1287,-0.420049 -6.76011,-0.888193 -8.0698,-1.040319 -1.30968,-0.152126 -3.33375,-0.438011 -4.49791,-0.6353 -1.9568,-0.331616 -1.27237,-0.361144 9.06198,-0.390962 l 11.17864,-0.03225 v 1.455208 1.455209 l -0.99218,-0.02393 c -0.54571,-0.01316 -3.55204,-0.367604 -6.68073,-0.787653 z"
         id="path129" /><path
         style="fill:#8d65fd;stroke-width:0.264583"
         d="m 166.53255,80.369507 v -93.6625 h 83.61119 c 72.85778,0 83.92676,0.05078 86.06494,0.394849 1.34956,0.217166 3.46164,0.50931 4.6935,0.649207 1.23186,0.139898 4.97819,0.614937 8.32517,1.055642 8.18489,1.077726 7.54062,1.132791 7.54062,-0.64449 0,-0.800364 0.11907,-1.455208 0.26459,-1.455208 0.17589,0 0.26458,31.397223 0.26458,93.6625 0,62.265273 -0.0887,93.662503 -0.26458,93.662503 -0.17126,0 -0.26459,-3.20967 -0.26459,-9.09983 v -9.09982 l -1.97618,0.76736 c -2.69897,1.04801 -4.88504,1.52107 -8.29628,1.79528 -5.22506,0.42002 -9.64974,-0.40889 -16.31816,-3.05699 -13.13506,-5.21606 -34.8346,-19.14053 -46.1415,-29.60873 -8.63088,-7.99067 -14.52309,-20.46482 -17.98897,-38.083731 -1.11412,-5.663658 -1.29868,-7.228705 -1.62244,-13.758334 C 263.15617,48.308876 258.25301,29.521437 249.35924,16.16194 243.219,6.9385647 235.47236,0.93472466 225.37394,-2.427258 c -6.15569,-2.0493614 -11.25899,-2.7692061 -19.55076,-2.7577248 -8.17354,0.011318 -12.58091,0.5295794 -27.91355,3.2823428 -4.87494,0.8752297 -9.25049,1.65240651 -9.72343,1.72705949 l -0.8599,0.13573231 V 86.599204 173.23826 h 17.70544 c 9.738,0 17.89378,0.0723 18.12396,0.1606 0.23019,0.0883 0.41852,0.26692 0.41852,0.39687 0,0.1364 -7.82928,0.23628 -18.52084,0.23628 h -18.52083 z"
         id="path127" /></g></g></svg>
