<svg xmlns="http://www.w3.org/2000/svg" viewBox="0 0 500 500"><g id="freepik--Floor--inject-9"><ellipse id="freepik--floor--inject-9" cx="250" cy="353.64" rx="223.42" ry="128.99" style="fill:#f0f0f0"></ellipse></g><g id="freepik--Shadows--inject-9"><path id="freepik--Shadow--inject-9" d="M335,363.48l27.21,15.7a6.86,6.86,0,0,0,6.24,0l56.46-32.6c1.72-1,1.72-2.61,0-3.6l-27.2-15.71a6.93,6.93,0,0,0-6.24,0L335,359.87C333.27,360.87,333.27,362.48,335,363.48Z" style="fill:#e0e0e0"></path><polygon id="freepik--shadow--inject-9" points="36.79 372.65 95.32 406.44 287.61 295.41 229.09 261.63 36.79 372.65" style="fill:#e0e0e0"></polygon><ellipse id="freepik--shadow--inject-9" cx="278.45" cy="327.94" rx="45.14" ry="26.06" style="fill:#e0e0e0"></ellipse><ellipse id="freepik--shadow--inject-9" cx="151.75" cy="395.51" rx="45.14" ry="26.06" style="fill:#e0e0e0"></ellipse></g><g id="freepik--Window--inject-9"><g id="freepik--window--inject-9"><g id="freepik--window--inject-9"><polygon points="279.25 154.96 467.37 263.56 467.37 130.11 279.25 21.5 279.25 154.96" style="fill:#BA68C8"></polygon><polygon points="279.25 154.96 467.37 263.56 467.37 130.11 279.25 21.5 279.25 154.96" style="fill:#fff;opacity:0.8"></polygon></g><g id="freepik--Plane--inject-9"><path d="M384.59,99.65l0,0,0,0a6.65,6.65,0,0,0-5.58-10.25,6.75,6.75,0,0,0-1.57.2h-.08c-3.89.87-14.25,4.16-21.74,9l9.76,16.12.32-.2c5.25-3.16,14.49-10.25,17.83-13.67a7.68,7.68,0,0,0,.85-1l0,0Z" style="fill:#e0e0e0"></path><path d="M353.71,102.93a14.73,14.73,0,0,0,6.67,11.55c3.68,2.13,6.66.4,6.66-3.85a14.73,14.73,0,0,0-6.66-11.55C356.69,97,353.71,98.67,353.71,102.93Z" style="fill:#ebebeb"></path><path d="M355.59,104a10.54,10.54,0,0,0,4.79,8.29c2.64,1.53,4.78.29,4.78-2.76a10.59,10.59,0,0,0-4.78-8.29C357.73,99.73,355.59,101,355.59,104Z" style="fill:#e0e0e0"></path><polygon points="395.03 88.33 360.35 68.3 371.34 102 395.03 88.33" style="fill:#f0f0f0"></polygon><path d="M395,125.29s-44.91,25.94-50.69,29.26-15.91,8-23.64,8.67c-8.59.77-11.85-1-13.7-2.51-3.84-3.08-1.45-10.07,2.66-13.86A23.62,23.62,0,0,1,315,136.07c4.46-5.12,18.57-13.41,30.92-20.65S395,88.33,395,88.33l32,18.48Z" style="fill:#fafafa"></path><path d="M314.53,144.43l-1.64,4.63a6.82,6.82,0,0,1-3.23-2.21,21.33,21.33,0,0,1,1.46-4.62A11,11,0,0,0,314.53,144.43Z" style="fill:#BA68C8"></path><path d="M320.22,145.32l-.16,5a17,17,0,0,1-6.54-1l1.64-4.64A13.15,13.15,0,0,0,320.22,145.32Z" style="fill:#BA68C8"></path><path d="M320.94,145.27a23.14,23.14,0,0,0,5.74-1.34v5a22.13,22.13,0,0,1-5.9,1.33Z" style="fill:#BA68C8"></path><path d="M331,141.91v4.94a27.19,27.19,0,0,1-3.61,1.77v-5A25.85,25.85,0,0,0,331,141.91Z" style="fill:#BA68C8"></path><g style="opacity:0.7000000000000001"><path d="M314.53,144.43l-1.64,4.63a6.82,6.82,0,0,1-3.23-2.21,21.33,21.33,0,0,1,1.46-4.62A11,11,0,0,0,314.53,144.43Z" style="fill:#fff"></path><path d="M320.22,145.32l-.16,5a17,17,0,0,1-6.54-1l1.64-4.64A13.15,13.15,0,0,0,320.22,145.32Z" style="fill:#fff"></path><path d="M320.94,145.27a23.14,23.14,0,0,0,5.74-1.34v5a22.13,22.13,0,0,1-5.9,1.33Z" style="fill:#fff"></path><path d="M331,141.91v4.94a27.19,27.19,0,0,1-3.61,1.77v-5A25.85,25.85,0,0,0,331,141.91Z" style="fill:#fff"></path></g><path d="M343.41,149.09a1.08,1.08,0,0,1-.53-.14,1.31,1.31,0,0,1-.58-1.21v-10a3.44,3.44,0,0,1,1.58-2.74l3-1.75a1.19,1.19,0,0,1,1.92,1.11v10a3.45,3.45,0,0,1-1.59,2.74l-3,1.75A1.6,1.6,0,0,1,343.41,149.09Zm4.29-15.45a1,1,0,0,0-.47.15l-3,1.74a2.86,2.86,0,0,0-1.26,2.18v10a.73.73,0,0,0,.26.64.72.72,0,0,0,.67-.1l3-1.75a2.82,2.82,0,0,0,1.26-2.17v-10a.71.71,0,0,0-.25-.64A.46.46,0,0,0,347.7,133.64Z" style="fill:#e0e0e0"></path><path d="M357.68,132.44v2.65c0,.54.38.76.85.49l1-.56a1.87,1.87,0,0,0,.85-1.47v-2.66c0-.54-.38-.76-.85-.49l-1,.56A1.88,1.88,0,0,0,357.68,132.44Z" style="fill:#e0e0e0"></path><path d="M373.69,123.19v2.65c0,.55.38.77.85.5l1-.56a1.88,1.88,0,0,0,.85-1.48v-2.65c0-.54-.38-.76-.85-.49l-1,.56A1.87,1.87,0,0,0,373.69,123.19Z" style="fill:#e0e0e0"></path><path d="M379,120.11v2.65c0,.55.38.77.86.5l1-.56a1.88,1.88,0,0,0,.85-1.48v-2.65c0-.54-.38-.76-.85-.49l-1,.56A1.86,1.86,0,0,0,379,120.11Z" style="fill:#e0e0e0"></path><path d="M384.36,117v2.65c0,.55.38.77.85.5l1-.56a1.89,1.89,0,0,0,.86-1.48v-2.65c0-.54-.39-.76-.86-.49l-1,.56A1.87,1.87,0,0,0,384.36,117Z" style="fill:#e0e0e0"></path><path d="M403,106.25v2.65c0,.55.38.77.85.5l1-.56a1.88,1.88,0,0,0,.85-1.48v-2.65c0-.54-.38-.76-.85-.49l-1,.55A1.91,1.91,0,0,0,403,106.25Z" style="fill:#e0e0e0"></path><path d="M408.37,103.17v2.65c0,.55.38.77.85.49l1-.55a1.88,1.88,0,0,0,.85-1.48v-2.65c0-.54-.38-.76-.85-.49l-1,.55A1.91,1.91,0,0,0,408.37,103.17Z" style="fill:#e0e0e0"></path><path d="M414.56,103.23l1-.55a1.88,1.88,0,0,0,.85-1.48v-.55L414,99.25a1.81,1.81,0,0,0-.25.84v2.65C413.7,103.29,414.08,103.51,414.56,103.23Z" style="fill:#e0e0e0"></path><path d="M389.69,114v2.65c0,.55.39.77.86.5l1-.56a1.88,1.88,0,0,0,.85-1.48v-2.65c0-.54-.38-.76-.85-.49l-1,.55A1.92,1.92,0,0,0,389.69,114Z" style="fill:#e0e0e0"></path><path d="M395,110.87v2.65c0,.55.38.77.85.49l1-.55a1.89,1.89,0,0,0,.86-1.48v-2.65c0-.54-.39-.76-.86-.49l-1,.55A1.91,1.91,0,0,0,395,110.87Z" style="fill:#e0e0e0"></path><path d="M363,129.35V132c0,.54.38.76.85.49l1-.56a1.88,1.88,0,0,0,.85-1.48v-2.65c0-.54-.38-.76-.85-.49l-1,.56A1.87,1.87,0,0,0,363,129.35Z" style="fill:#e0e0e0"></path><path d="M435.25,129l0,0s0,0,0,0a6.54,6.54,0,0,0,1.07-3.6,6.64,6.64,0,0,0-6.64-6.64,6.83,6.83,0,0,0-1.58.19h-.07c-3.89.87-14.25,4.16-21.74,9.05L416.08,144l.32-.2c5.25-3.16,14.49-10.24,17.83-13.67a7.11,7.11,0,0,0,.85-1l0,0Z" style="fill:#e0e0e0"></path><path d="M404.36,132.22A14.76,14.76,0,0,0,411,143.77c3.69,2.13,6.67.4,6.67-3.85A14.73,14.73,0,0,0,411,128.37C407.35,126.24,404.36,128,404.36,132.22Z" style="fill:#ebebeb"></path><path d="M406.25,133.31A10.59,10.59,0,0,0,411,141.6c2.65,1.52,4.79.29,4.79-2.77a10.57,10.57,0,0,0-4.79-8.29C408.39,129,406.25,130.26,406.25,133.31Z" style="fill:#e0e0e0"></path><polygon points="392.36 123.56 456.06 123.56 424.37 105.27 392.36 123.56" style="fill:#f0f0f0"></polygon></g></g></g><g id="freepik--Chairs--inject-9"><g id="freepik--chairs--inject-9"><path d="M272.4,253.45l-2.06-3.56,4.18-2.42a5,5,0,0,0,2-5.13l-5.89-23.8a11.89,11.89,0,0,0-4.72-6.28L241.35,198.1c-.67-.39-1-.34-1.09-.31s-.28.33-.28,1.1v18.67a11.66,11.66,0,0,1-5.21,9.34l-4.18,2.42-2.06-3.57,4.18-2.41a7.53,7.53,0,0,0,3.16-5.78V198.89a4.73,4.73,0,0,1,7.54-4.36l24.53,14.17a16,16,0,0,1,6.66,8.85l5.89,23.8a9.1,9.1,0,0,1-3.91,9.69Z" style="fill:#37474f"></path><path d="M96,347.69H90.85V393.9h0a1.28,1.28,0,0,0,.75,1,4,4,0,0,0,3.61,0,1.28,1.28,0,0,0,.75-1h0Z" style="fill:#37474f"></path><path d="M62.52,328.42H57.41v46.2h0a1.26,1.26,0,0,0,.74,1,4,4,0,0,0,3.62,0,1.25,1.25,0,0,0,.75-1h0Z" style="fill:#37474f"></path><path d="M138.81,323h-5.12v46.21h0a1.25,1.25,0,0,0,.74,1,4,4,0,0,0,3.62,0,1.26,1.26,0,0,0,.75-1h0Z" style="fill:#37474f"></path><path d="M105.36,303.68h-5.11v46.2h0a1.25,1.25,0,0,0,.75,1,4,4,0,0,0,3.61,0,1.25,1.25,0,0,0,.75-1h0Z" style="fill:#37474f"></path><path d="M181.65,298.22h-5.11v46.2h0a1.26,1.26,0,0,0,.75,1,4,4,0,0,0,3.61,0,1.26,1.26,0,0,0,.75-1h0Z" style="fill:#37474f"></path><path d="M148.21,278.94H143.1v46.2h0a1.28,1.28,0,0,0,.75,1.05,4,4,0,0,0,3.61,0,1.28,1.28,0,0,0,.75-1.05h0Z" style="fill:#37474f"></path><path d="M224.5,273.48h-5.11v46.2h0a1.26,1.26,0,0,0,.75,1,4,4,0,0,0,3.61,0,1.26,1.26,0,0,0,.75-1h0Z" style="fill:#37474f"></path><path d="M191.06,254.2h-5.12v46.2h0a1.28,1.28,0,0,0,.75,1.05,4,4,0,0,0,3.62,0,1.28,1.28,0,0,0,.75-1.05h0Z" style="fill:#37474f"></path><path d="M267.35,248.74h-5.12v46.2h0a1.25,1.25,0,0,0,.75,1,4,4,0,0,0,3.62,0,1.25,1.25,0,0,0,.75-1h0Z" style="fill:#37474f"></path><path d="M233.9,229.46h-5.11v46.2h0a1.28,1.28,0,0,0,.75,1,4,4,0,0,0,3.61,0,1.28,1.28,0,0,0,.75-1h0Z" style="fill:#37474f"></path><polygon points="245.97 252.06 220.29 237.71 91.12 312.29 91.12 315.12 116.2 329.6 245.97 254.89 245.97 252.06" style="fill:#263238"></polygon><polygon points="91.12 312.29 220.29 237.71 245.97 252.06 116.2 326.77 91.12 312.29" style="fill:#455a64"></polygon><rect x="57.9" y="298.14" width="4.12" height="22.98" transform="translate(-31.02 7.66) rotate(-5.81)" style="fill:#37474f"></rect><rect x="89.62" y="281.81" width="4.12" height="22.98" transform="translate(-29.21 10.78) rotate(-5.81)" style="fill:#37474f"></rect><path d="M156.11,325.67h0a31.27,31.27,0,0,0-11.42-11.42L106,291.88h0L51.6,323.26v2.41l37.33,21.56a31,31,0,0,1,11.42,11.42l54.35-31.38h0Z" style="fill:#BA68C8"></path><path d="M51.6,323.26l38.74,22.36a31.17,31.17,0,0,1,11.43,11.43h0l54.34-31.38h0a31.27,31.27,0,0,0-11.42-11.42L106,291.88h0Z" style="fill:#BA68C8"></path><polygon points="101.77 357.05 100.35 358.65 154.7 327.27 154.7 327.27 156.11 325.67 101.77 357.05" style="opacity:0.5"></polygon><path d="M51.6,325.67l37.33,21.56a31,31,0,0,1,11.42,11.42l1.42-1.6-.14-.24a31.21,31.21,0,0,0-11.29-11.19L51.6,323.26Z" style="opacity:0.2"></path><polygon points="101.77 284.64 93.4 217.06 91.14 215.75 36.79 247.13 45.15 314.71 47.42 316.02 101.77 284.64" style="fill:#BA68C8"></polygon><polygon points="36.79 247.13 39.06 248.44 47.42 316.02 45.15 314.71 36.79 247.13" style="opacity:0.2"></polygon><polygon points="47.42 316.02 101.77 284.64 93.4 217.06 39.06 248.44 47.42 316.02" style="fill:#BA68C8"></polygon><polygon points="36.79 247.13 39.06 248.44 93.4 217.06 91.14 215.75 36.79 247.13" style="fill:#fff;opacity:0.4"></polygon><rect x="120.61" y="261.94" width="4.12" height="22.98" transform="translate(-27.04 13.82) rotate(-5.81)" style="fill:#37474f"></rect><rect x="152.32" y="245.61" width="4.12" height="22.98" transform="translate(-25.22 16.94) rotate(-5.81)" style="fill:#37474f"></rect><path d="M218.81,289.47h0a31.19,31.19,0,0,0-11.42-11.42l-38.74-22.37h0l-54.34,31.38v2.41L151.64,311a31.12,31.12,0,0,1,11.42,11.42l54.34-31.38h0Z" style="fill:#BA68C8"></path><path d="M114.31,287.06l38.74,22.36a31.22,31.22,0,0,1,11.42,11.43h0l54.34-31.38h0a31.19,31.19,0,0,0-11.42-11.42l-38.74-22.37h0Z" style="fill:#BA68C8"></path><polygon points="164.47 320.85 163.06 322.45 217.4 291.07 217.4 291.07 218.81 289.47 164.47 320.85" style="opacity:0.5"></polygon><path d="M114.31,289.47,151.64,311a31.12,31.12,0,0,1,11.42,11.42l1.41-1.6-.13-.24a31.29,31.29,0,0,0-11.29-11.19l-38.74-22.36Z" style="opacity:0.2"></path><polygon points="164.47 248.44 156.11 180.86 153.84 179.55 99.5 210.93 107.86 278.51 110.13 279.82 164.47 248.44" style="fill:#BA68C8"></polygon><polygon points="99.5 210.93 101.77 212.24 110.13 279.82 107.86 278.51 99.5 210.93" style="opacity:0.2"></polygon><polygon points="110.13 279.82 164.47 248.44 156.11 180.86 101.77 212.24 110.13 279.82" style="fill:#BA68C8"></polygon><polygon points="99.5 210.93 101.77 212.24 156.11 180.86 153.84 179.55 99.5 210.93" style="fill:#fff;opacity:0.4"></polygon><rect x="183.31" y="225.74" width="4.12" height="22.98" transform="translate(-23.05 19.97) rotate(-5.81)" style="fill:#37474f"></rect><rect x="215.03" y="209.41" width="4.12" height="22.98" transform="translate(-21.24 23.1) rotate(-5.81)" style="fill:#37474f"></rect><path d="M281.52,253.27h0a31.22,31.22,0,0,0-11.42-11.43l-38.74-22.36h0L177,250.85v2.42l37.33,21.55a31.19,31.19,0,0,1,11.42,11.42l54.35-31.37h0Z" style="fill:#BA68C8"></path><path d="M177,250.85l38.74,22.37a31.22,31.22,0,0,1,11.43,11.42h0l54.34-31.37h0a31.22,31.22,0,0,0-11.42-11.43l-38.74-22.36h0Z" style="fill:#BA68C8"></path><polygon points="227.18 284.64 225.76 286.24 280.11 254.87 280.11 254.87 281.52 253.27 227.18 284.64" style="opacity:0.5"></polygon><path d="M177,253.27l37.33,21.55a31.19,31.19,0,0,1,11.42,11.42l1.42-1.6-.14-.23a31.14,31.14,0,0,0-11.29-11.19L177,250.85Z" style="opacity:0.2"></path><polygon points="227.18 212.24 218.81 144.66 216.54 143.35 162.2 174.72 170.56 242.3 172.83 243.61 227.18 212.24" style="fill:#BA68C8"></polygon><polygon points="162.2 174.72 164.47 176.03 172.83 243.61 170.56 242.3 162.2 174.72" style="opacity:0.2"></polygon><polygon points="172.83 243.61 227.18 212.24 218.81 144.66 164.47 176.03 172.83 243.61" style="fill:#BA68C8"></polygon><polygon points="162.2 174.72 164.47 176.03 218.81 144.66 216.54 143.35 162.2 174.72" style="fill:#fff;opacity:0.4"></polygon><path d="M93,350l-2.71,1.56a6,6,0,0,1-3,.83,5.37,5.37,0,0,1-2.06-.41,6.15,6.15,0,0,1-3.41-4.28l-1.33-5.36-.69-2.81-3.87-15.63a12,12,0,0,0-4.72-6.29L53,307.1c-.67-.39-1-.34-1.09-.31s-.28.33-.28,1.1v18.67c0,.85.24,1.18.3,1.22a1.38,1.38,0,0,0,.8-.26l1-.61,4.12,2.38-3.1,1.79a4.86,4.86,0,0,1-4.92.26,5.29,5.29,0,0,1-2.35-4.78V307.89A4.73,4.73,0,0,1,55,303.54l18.23,10.52a16,16,0,0,1,6.66,8.86l4.83,19.47.7,2.82.37,1.51a2,2,0,0,0,1,1.48,1.53,1.53,0,0,0,1.36-.19l1-.59A29.9,29.9,0,0,1,93,350Z" style="fill:#37474f"></path></g></g><g id="freepik--Signal--inject-9"><g id="freepik--signal--inject-9"><g id="freepik--speach-bubble--inject-9"><path d="M180.83,37.21,73.32,99.29a2.54,2.54,0,0,0-1.15,2v31.05a2.5,2.5,0,0,0,1.15,2l4.13,2.31a2.57,2.57,0,0,0,2.31,0L187.27,74.53a2.52,2.52,0,0,0,1.15-2V41.49a2.51,2.51,0,0,0-1.16-2l-4.12-2.31A2.57,2.57,0,0,0,180.83,37.21Z" style="fill:#BA68C8"></path><path d="M78.61,136v-31a2.54,2.54,0,0,1,1.15-2L187.27,40.83c.64-.37,1.15-.07,1.15.66V72.54a2.52,2.52,0,0,1-1.15,2L79.76,136.61C79.12,137,78.61,136.68,78.61,136Z" style="fill:#BA68C8"></path><path d="M79.76,136.61a2.61,2.61,0,0,1-2.31,0l-4.13-2.31a2.53,2.53,0,0,1-1.15-2V101.28a2.38,2.38,0,0,1,.36-1.17L79,103.77a2.34,2.34,0,0,0-.34,1.13v31A.71.71,0,0,0,79.76,136.61Z" style="opacity:0.2"></path><path d="M188.41,41.29c-.09-.58-.57-.79-1.14-.46L79.76,102.91a2.32,2.32,0,0,0-.81.86l-6.42-3.66a2.15,2.15,0,0,1,.79-.82L180.83,37.21a2.57,2.57,0,0,1,2.31,0l4.12,2.31A2.55,2.55,0,0,1,188.41,41.29Z" style="fill:#fff;opacity:0.4"></path></g><path d="M181.89,53.5a1.09,1.09,0,0,0-1.13,0l-8.73,5a1.13,1.13,0,1,0,1.13,2l5.59-3.22L171.32,73a1.13,1.13,0,0,0,.54,1.51,1.2,1.2,0,0,0,.48.11,1.13,1.13,0,0,0,1-.65l6.82-14.44v8.38a1.14,1.14,0,1,0,2.27,0V54.48A1.13,1.13,0,0,0,181.89,53.5Z" style="fill:#fff"></path><path d="M84.27,124.28c.34.32.9-.78.9-.78l1.32,1.81.2-.43-.48-3.43S87.92,118.86,90,115l4.69,4.5.23-.47-2.2-6.22.49-1c.09-.19.07-.4,0-.47s-.29,0-.38.22l-.3.63-.42-1.2c2.31-4.83,3.58-8.15,2.72-9s-2.53,2.1-4.8,7l-.94-.11.3-.64a.66.66,0,0,0,0-.57c-.09-.13-.23-.08-.32.11l-.49,1-4.86-.58-.22.48,4.68,4.53c-1.73,4.22-2.77,7.46-2.77,7.46L83,121.3l-.2.43,1.67,1.07S83.94,124,84.27,124.28Z" style="fill:#fff"></path><path d="M104.85,100.16a2.56,2.56,0,0,1,1.19-.41,1.12,1.12,0,0,1,.84.3,2,2,0,0,1,.52.94,6.81,6.81,0,0,1,.22,1.5c0,.69,0,1.4,0,2.11a10.59,10.59,0,0,1-.22,1.75,7.14,7.14,0,0,1-.51,1.54,5.25,5.25,0,0,1-.83,1.27,4.52,4.52,0,0,1-1.17,1l-2.33,1.35a.13.13,0,0,1-.17,0,.32.32,0,0,1-.08-.23V102a.76.76,0,0,1,.08-.32.41.41,0,0,1,.17-.21Zm1.52,3a3,3,0,0,0-.12-.78,1.23,1.23,0,0,0-.28-.52.68.68,0,0,0-.48-.18,1.51,1.51,0,0,0-.69.23l-1.24.72v6.42l1.29-.75a2.44,2.44,0,0,0,.66-.54,3,3,0,0,0,.46-.72,3.77,3.77,0,0,0,.28-.84,4.83,4.83,0,0,0,.12-.93C106.39,104.61,106.39,103.9,106.37,103.21Z" style="fill:#fff"></path><path d="M113.61,103.3a.14.14,0,0,1,.18,0,.3.3,0,0,1,.07.23v1a.7.7,0,0,1-.07.31.46.46,0,0,1-.18.22l-4.06,2.35a.14.14,0,0,1-.18,0,.28.28,0,0,1-.08-.22V98a.75.75,0,0,1,.08-.31.51.51,0,0,1,.18-.22l4-2.3a.12.12,0,0,1,.17,0,.32.32,0,0,1,.08.23v1a.76.76,0,0,1-.08.32.46.46,0,0,1-.17.21l-3,1.73v2.27l2.78-1.61a.14.14,0,0,1,.18,0,.3.3,0,0,1,.07.23v1a.7.7,0,0,1-.07.31.46.46,0,0,1-.18.22l-2.78,1.61v2.37Z" style="fill:#fff"></path><path d="M118.2,92.44c.75-.43,1.33-.49,1.75-.19a2.48,2.48,0,0,1,.62,2A5.91,5.91,0,0,1,120,97a4.48,4.48,0,0,1-1.75,1.83l-1.48.86v3.18a.7.7,0,0,1-.07.31.51.51,0,0,1-.18.22l-.75.43a.13.13,0,0,1-.17,0,.32.32,0,0,1-.08-.23V94.41a.76.76,0,0,1,.08-.32.46.46,0,0,1,.17-.21Zm-1.48,5.49,1.44-.82a2.51,2.51,0,0,0,.84-.81,2.43,2.43,0,0,0,.32-1.3c0-.54-.11-.84-.32-.93a1,1,0,0,0-.84.18l-1.44.83Z" style="fill:#fff"></path><path d="M124.7,88.7c.1-.06.17-.06.22,0a.72.72,0,0,1,.13.29l2.27,7.7a.25.25,0,0,1,0,.09.76.76,0,0,1-.08.32.46.46,0,0,1-.17.21l-.67.39c-.12.07-.21.08-.26,0a.46.46,0,0,1-.1-.18l-.4-1.35-2.92,1.69-.4,1.81a1.43,1.43,0,0,1-.1.29.77.77,0,0,1-.26.28l-.67.38a.14.14,0,0,1-.18,0,.32.32,0,0,1-.07-.23.41.41,0,0,1,0-.11L123.33,90a1.79,1.79,0,0,1,.13-.44.54.54,0,0,1,.22-.25Zm.51,6-1-3.47-1,4.65Z" style="fill:#fff"></path><path d="M131.27,84.9c.78-.45,1.36-.51,1.76-.19a2.44,2.44,0,0,1,.61,2,6,6,0,0,1-.32,2,4.78,4.78,0,0,1-.91,1.62L133.69,93a.32.32,0,0,1,0,.14.57.57,0,0,1-.06.25.39.39,0,0,1-.14.18l-.79.45c-.13.07-.22.08-.28,0a.48.48,0,0,1-.12-.17l-1.21-2.63-1.23.72V95.3a.71.71,0,0,1-.08.31.46.46,0,0,1-.18.22l-.75.43a.12.12,0,0,1-.17,0,.3.3,0,0,1-.08-.23V86.81a.68.68,0,0,1,.08-.31.51.51,0,0,1,.17-.22Zm-1.38,5.29,1.34-.77a2.6,2.6,0,0,0,.84-.77,2.27,2.27,0,0,0,.32-1.27c0-.53-.11-.83-.32-.89a1.17,1.17,0,0,0-.84.22l-1.34.77Z" style="fill:#fff"></path><path d="M139.55,80.12a.14.14,0,0,1,.18,0,.32.32,0,0,1,.07.23v1a.74.74,0,0,1-.07.32.48.48,0,0,1-.18.21l-1.66,1v7.82a.71.71,0,0,1-.08.31.51.51,0,0,1-.17.22l-.75.43a.14.14,0,0,1-.18,0,.32.32,0,0,1-.07-.23V83.58l-1.67,1a.15.15,0,0,1-.18,0,.32.32,0,0,1-.07-.23v-1a.74.74,0,0,1,.07-.32.43.43,0,0,1,.18-.21Z" style="fill:#fff"></path><path d="M146.2,76.28a.14.14,0,0,1,.18,0,.32.32,0,0,1,.07.23v5.85a8.43,8.43,0,0,1-.16,1.69,7,7,0,0,1-.5,1.52,5.19,5.19,0,0,1-.84,1.27,4.4,4.4,0,0,1-1.16.94,2.51,2.51,0,0,1-1.16.4,1.17,1.17,0,0,1-.83-.31,2,2,0,0,1-.49-.95,5.89,5.89,0,0,1-.16-1.5V79.58a.73.73,0,0,1,.07-.31.43.43,0,0,1,.18-.21l.75-.44a.14.14,0,0,1,.17,0,.32.32,0,0,1,.08.23v5.78a3.46,3.46,0,0,0,.1.94,1,1,0,0,0,.29.51.57.57,0,0,0,.44.13,1.44,1.44,0,0,0,.56-.21,2.74,2.74,0,0,0,.58-.45,3,3,0,0,0,.45-.64,3.85,3.85,0,0,0,.29-.85,5,5,0,0,0,.1-1.06V77.24a.76.76,0,0,1,.08-.32.46.46,0,0,1,.17-.21Z" style="fill:#fff"></path><path d="M151,73.54c.77-.45,1.35-.51,1.75-.19a2.4,2.4,0,0,1,.61,2,6,6,0,0,1-.31,2,5,5,0,0,1-.91,1.62l1.27,2.78a.39.39,0,0,1,0,.14.62.62,0,0,1-.06.26.41.41,0,0,1-.14.17l-.79.46c-.12.07-.22.08-.27,0a.55.55,0,0,1-.13-.18L150.8,79.9l-1.23.71v3.32a.76.76,0,0,1-.08.32.67.67,0,0,1-.17.22l-.75.43a.15.15,0,0,1-.18,0,.32.32,0,0,1-.07-.23V75.45a.74.74,0,0,1,.07-.32.48.48,0,0,1,.18-.21Zm-1.39,5.29,1.34-.78a2.5,2.5,0,0,0,.84-.77,2.22,2.22,0,0,0,.32-1.26c0-.54-.11-.83-.32-.89a1.15,1.15,0,0,0-.84.21l-1.34.78Z" style="fill:#fff"></path><path d="M159.3,76.92a.14.14,0,0,1,.18,0,.3.3,0,0,1,.07.23v1a.67.67,0,0,1-.07.31.46.46,0,0,1-.18.22l-4.06,2.35a.14.14,0,0,1-.18,0,.28.28,0,0,1-.08-.22V71.6a.76.76,0,0,1,.08-.32.43.43,0,0,1,.18-.21l4-2.31a.13.13,0,0,1,.17,0,.32.32,0,0,1,.08.23v1a.76.76,0,0,1-.08.32.46.46,0,0,1-.17.21l-3,1.73v2.27L159,72.93a.14.14,0,0,1,.18,0,.3.3,0,0,1,.07.23v1a.74.74,0,0,1-.07.32.48.48,0,0,1-.18.21l-2.78,1.61v2.37Z" style="fill:#fff"></path><path d="M163.39,66.22a2.38,2.38,0,0,1,1.09-.38,1.33,1.33,0,0,1,.79.19,1.39,1.39,0,0,1,.47.57,2.11,2.11,0,0,1,.18.78.49.49,0,0,1-.07.31.39.39,0,0,1-.18.21l-.64.38c-.11.06-.19.07-.24,0a.47.47,0,0,1-.15-.16.71.71,0,0,0-.42-.38c-.19-.07-.46,0-.83.22a2.48,2.48,0,0,0-.46.34,2.27,2.27,0,0,0-.38.45,2,2,0,0,0-.26.51,1.7,1.7,0,0,0-.09.54,1,1,0,0,0,.09.48.37.37,0,0,0,.29.19,1.86,1.86,0,0,0,.55,0l.86-.19a3.58,3.58,0,0,1,1-.12,1.06,1.06,0,0,1,.65.22A1.16,1.16,0,0,1,166,71a3,3,0,0,1,.13,1,4.55,4.55,0,0,1-.19,1.3,5.69,5.69,0,0,1-.52,1.25,5.5,5.5,0,0,1-.85,1.1,5,5,0,0,1-1.12.88,3.14,3.14,0,0,1-1,.38,1.47,1.47,0,0,1-.84-.08,1.25,1.25,0,0,1-.59-.53,2.33,2.33,0,0,1-.25-1,.71.71,0,0,1,.07-.32.65.65,0,0,1,.18-.21l.65-.37q.17-.09.24-.06a.34.34,0,0,1,.14.18,2.54,2.54,0,0,0,.16.28.42.42,0,0,0,.25.18.72.72,0,0,0,.39,0,1.84,1.84,0,0,0,.59-.25,3.23,3.23,0,0,0,.54-.37,2.85,2.85,0,0,0,.45-.47,2.61,2.61,0,0,0,.32-.56,1.59,1.59,0,0,0,.12-.62.59.59,0,0,0-.13-.43.5.5,0,0,0-.4-.12,3.25,3.25,0,0,0-.65.11l-.9.19a3,3,0,0,1-.81.06.94.94,0,0,1-.57-.25,1.24,1.24,0,0,1-.34-.61,4.13,4.13,0,0,1-.11-1,4.78,4.78,0,0,1,.18-1.29,6.28,6.28,0,0,1,.51-1.22,5.72,5.72,0,0,1,.78-1A4.16,4.16,0,0,1,163.39,66.22Z" style="fill:#fff"></path></g></g><g id="freepik--Luggage--inject-9"><g id="freepik--luggage--inject-9"><polygon points="376.05 245.24 376.05 193.34 379.51 191.34 379.51 243.24 376.05 245.24" style="fill:#455a64"></polygon><polygon points="372.59 191.33 372.59 247.23 376.05 245.24 376.05 193.33 372.59 191.33" style="fill:#263238"></polygon><polygon points="355.37 257.18 351.91 255.22 372.67 243.24 376.05 245.24 355.37 257.18" style="fill:#37474f"></polygon><polygon points="351.91 259.18 351.91 207.28 355.37 205.28 355.37 257.18 351.91 259.18" style="fill:#455a64"></polygon><polygon points="348.45 205.28 348.45 261.18 351.91 259.18 351.91 207.28 348.45 205.28" style="fill:#37474f"></polygon><path d="M375.17,187.17a2.64,2.64,0,0,0-2.73.27l-20.31,11.72a7.91,7.91,0,0,0-3.68,6.12v4l3.46,2,27.6-16,0-4a2.34,2.34,0,0,0-.89-2.09C378,188.79,375.75,187.54,375.17,187.17Z" style="fill:#BA68C8"></path><path d="M351.91,207.28a7.88,7.88,0,0,1,3.69-6.12l20.3-11.73c2-1.17,3.67-.35,3.65,1.85l0,4-27.6,16Z" style="fill:#BA68C8"></path><path d="M351.91,207.28a7.88,7.88,0,0,1,3.69-6.12l20.3-11.73c2-1.17,3.67-.35,3.65,1.85l0,4-27.6,16Z" style="opacity:0.2"></path><path d="M353,203.89a7,7,0,0,0-1,3.39v4l-3.46-2v-4a6.86,6.86,0,0,1,1.05-3.38Z" style="opacity:0.4"></path><path d="M409,249.66,390.2,238.82a2.58,2.58,0,0,0-2.61-.25h0l-45.16,26.09,25.7,102.55,45-26a2.58,2.58,0,0,0,1.09-2.38V258.7A11.58,11.58,0,0,0,409,249.66Z" style="fill:#BA68C8"></path><path d="M409,249.66,390.2,238.82a2.58,2.58,0,0,0-2.61-.25h0l-45.16,26.09,25.7,102.55,45-26a2.58,2.58,0,0,0,1.09-2.38V258.7A11.58,11.58,0,0,0,409,249.66Z" style="opacity:0.2"></path><path d="M345.22,355.24,365.52,367c2,1.17,3.69.21,3.69-2.13V284.67a11.56,11.56,0,0,0-5.22-9l-18.77-10.84c-2-1.17-3.69-.21-3.69,2.13v81.93A8.19,8.19,0,0,0,345.22,355.24Z" style="fill:#BA68C8"></path><path d="M345.22,355.24,365.52,367c2,1.17,3.69.21,3.69-2.13V284.67a11.56,11.56,0,0,0-5.22-9l-18.77-10.84c-2-1.17-3.69-.21-3.69,2.13v81.93A8.19,8.19,0,0,0,345.22,355.24Z" style="opacity:0.4"></path><path d="M359.37,359a14.61,14.61,0,0,0-6.61-11.44c-1.92-1.1-3.63-1.15-4.84-.34h0l-4.45,2.54,9.47,16.1,4.42-2.54h0C358.59,362.64,359.37,361.15,359.37,359Z" style="fill:#455a64"></path><path d="M348.13,350.23a14.59,14.59,0,0,1,6.61,11.44c0,4.21-3,5.92-6.61,3.81a14.61,14.61,0,0,1-6.6-11.44C341.53,349.83,344.49,348.12,348.13,350.23Z" style="fill:#37474f"></path><path d="M348.13,355a5.56,5.56,0,0,1,2.52,4.36c0,1.6-1.13,2.25-2.52,1.45a5.57,5.57,0,0,1-2.51-4.36C345.62,354.8,346.75,354.15,348.13,355Z" style="fill:#263238"></path><path d="M362.29,365.1l3.57,2.09a2.32,2.32,0,0,0,2.32,0l5.76-3.32V359.8a.83.83,0,0,0-1.25-.71l-3.49,2-5.67-3.29a.83.83,0,0,0-1.24.72Z" style="fill:#37474f"></path><path d="M369.21,364.83V361.1h0l-5.67-3.29a.83.83,0,0,0-1.24.72v6.56h0l3.21,1.85a2.82,2.82,0,0,0,2.22.41,1.8,1.8,0,0,0,.38-.16A2.58,2.58,0,0,0,369.21,364.83Z" style="fill:#263238"></path><path d="M413.1,341.24a2.58,2.58,0,0,0,1.09-2.38v-3.72h0l-3.69,2.13a2.1,2.1,0,0,0-1.05,1.81v4.28Z" style="fill:#37474f"></path><path d="M369.21,309.16c19-22.19,33.63-29.52,45-26v-4c-11.35-3.56-25.94,3.77-45,26Z" style="fill:#BA68C8"></path><path d="M412,252.5l-45,26a9.75,9.75,0,0,0-3-2.84l-18.76-10.84a2.7,2.7,0,0,0-2.44-.34l44.81-25.88a2.58,2.58,0,0,1,2.6.25L409,249.66A10.19,10.19,0,0,1,412,252.5Z" style="fill:#BA68C8;opacity:0.30000000000000004"></path><path d="M393.38,248.41a4.79,4.79,0,0,0-4.33,0l-2.16,1.25v.7l4.33,2.5,2.16-1.25a1.52,1.52,0,0,0,.9-1.25v-.71A1.51,1.51,0,0,0,393.38,248.41Z" style="fill:#263238"></path><path d="M386.89,249.66l2.16-1.25a4.79,4.79,0,0,1,4.33,0,1.32,1.32,0,0,1,0,2.5l-2.16,1.25Z" style="fill:#455a64"></path><polygon points="391.22 248.75 391.22 252.16 386.89 249.66 386.89 246.25 391.22 248.75" style="fill:#37474f"></polygon><polygon points="369.57 261.3 391.22 248.75 386.89 246.25 365.24 258.75 369.57 261.3" style="fill:#455a64"></polygon><polygon points="365.24 262.15 365.24 258.75 369.57 261.3 369.57 264.65 365.24 262.15" style="fill:#37474f"></polygon><path d="M369.56,264.65l-4.33-2.5-2.16,1.25a1.5,1.5,0,0,0-.89,1.24v.73a1.49,1.49,0,0,0,.89,1.24,4.76,4.76,0,0,0,4.33,0l2.16-1.25Z" style="fill:#263238"></path><path d="M365.24,262.15l-2.16,1.25a1.32,1.32,0,0,0,0,2.5,4.79,4.79,0,0,0,4.33,0l2.16-1.25Z" style="fill:#455a64"></path><polygon points="370.27 260.89 370.27 264.96 369.56 265.37 369.56 261.3 370.27 260.89" style="fill:#263238"></polygon><polygon points="391.22 248.75 391.22 252.86 390.5 253.27 390.5 249.17 391.22 248.75" style="fill:#263238"></polygon><polygon points="369.56 262.15 391.22 249.61 391.22 248.75 369.56 261.3 369.56 262.15" style="fill:#263238"></polygon><polygon points="390.5 253.27 390.5 250.02 387.7 251.65 390.5 253.27" style="fill:#37474f"></polygon></g></g><g id="freepik--character-2--inject-9"><g id="freepik--Character--inject-9"><path d="M226.65,173.85c9.39-.51,12.43,10.73,16.15,17.47,4.45,8.05,13.06,23.25,13.06,23.25l-9.43,5.78-18.36-27.23Z" style="fill:#ffa8a7"></path><path d="M226.66,173.85a8.68,8.68,0,0,1,6.24,1.27c2.84,2,4.29,4.51,6.46,8.27s6.65,13.7,6.65,13.7-4.48,6-11.8,6.88l-7.72-15.68Z" style="fill:#455a64"></path><path d="M264.56,310.35s1.56,10.63,4.67,14.59c2.8,3.56,4.82,8.1,8.15,11.81.72.81,2.37,2.31,3,3a1.28,1.28,0,0,1-.1,2c-1.43,1.41-7.57,1.85-11.06-.67s-7-7.37-9.05-9.42c-1-1-2-2-2.75-2.71a2.81,2.81,0,0,1-.74-2.64c.07-.27.14-.59.22-1,.44-2-2.32-10.1-2.32-10.1Z" style="fill:#ffa8a7"></path><path d="M257.16,331a5.4,5.4,0,0,0,.34,1.91c.34.76,2.12,1.89,3.25,2.42a7.25,7.25,0,0,1,3.56,3.7,12.89,12.89,0,0,0,6.07,5.84,18.36,18.36,0,0,0,10.89.91c4.53-.91,4.85-3.59,4.85-3.59s.19-2.53-.95-2.91S257.16,331,257.16,331Z" style="fill:#263238"></path><path d="M256,319.92a24.32,24.32,0,0,1,.31,6.54c-.1,1.32-.13,3.4.87,4.56,1.37,1.83,4.26,2.38,6.14,4.88s4.66,7,10.63,8.1,10.47-.92,11.53-2.63,0-3.3-3.82-5.29c-4.1-2.1-9.56-8.52-9.56-8.52a23.24,23.24,0,0,1-3.85-6.41l-1.45-4.62c-.32-.9-6.75,1-7.43,2.32l.77,4.1-1.65-3.87A4.25,4.25,0,0,0,256,319.92Z" style="fill:#455a64"></path><path d="M270.05,342.65a7.57,7.57,0,0,1,4.28-6.55c4.45-2.39,7.21-1,8.6,0,1.66,1.15,4.05,3.56,2.66,5.38s-3.94,2.92-8.52,3.06A10.87,10.87,0,0,1,270.05,342.65Z" style="fill:#fafafa"></path><path d="M263.63,328.85a.54.54,0,0,0,.4-.22c.5-.72,3.71-3.44,6.89-2.63.15-.36-.12-.74-.78-1.11a9.26,9.26,0,0,0-7,3.19.49.49,0,0,0,.14.69A.61.61,0,0,0,263.63,328.85Z" style="fill:#fafafa"></path><path d="M272.77,328.34a1.56,1.56,0,0,0-.92-1.08,9.44,9.44,0,0,0-6.56,3.22.48.48,0,0,0,.15.68.52.52,0,0,0,.31.08.53.53,0,0,0,.41-.22C266.64,330.32,269.69,327.74,272.77,328.34Z" style="fill:#fafafa"></path><path d="M269.49,323.85a.9.9,0,0,0-.64-1.23c-3.63-.79-7.16,2.13-7.81,3.07a.47.47,0,0,0,.15.68.49.49,0,0,0,.31.09.51.51,0,0,0,.4-.23C262.44,325.46,266.11,322.38,269.49,323.85Z" style="fill:#fafafa"></path><path d="M277.82,333.36a2.82,2.82,0,0,0-1.43-1.3,9.36,9.36,0,0,0-6.84,3.2.48.48,0,0,0,.15.69.55.55,0,0,0,.31.08.53.53,0,0,0,.4-.22C270.93,335.05,274.49,332.06,277.82,333.36Z" style="fill:#fafafa"></path><path d="M267.88,333.63a.47.47,0,0,0,.4-.22c.49-.71,3.65-3.37,6.78-2.64a1.77,1.77,0,0,0-1.08-1.12,9.48,9.48,0,0,0-6.56,3.22.47.47,0,0,0,.15.68A.48.48,0,0,0,267.88,333.63Z" style="fill:#fafafa"></path><path d="M195.18,225.67c-1.2,6.7-1.57,10.49.79,17.26s10.19,12.23,19.64,17.53c7.83,4.38,18.74,11.24,20.89,12.58,2.45,1.53,3,2.66,3.17,5.92.26,4.43,1.4,11.63,6.47,20.6,5.35,9.47,8.87,17.08,8.87,17.08a32.76,32.76,0,0,1,10.55-3.87s-9.81-43.87-11.88-49.61-24.12-24-24.12-24,2.16-9.19,3.77-15.88Z" style="fill:#37474f"></path><path d="M286.64,298.64s2.87,8.87,5.17,13A63.92,63.92,0,0,0,300,323.48c.72.81,2.37,2.3,3,3a1.28,1.28,0,0,1-.1,2c-1.43,1.41-7.57,1.85-11.06-.67s-6.95-7.38-9.05-9.42L280,315.61a2.8,2.8,0,0,1-.74-2.64c.07-.27.14-.58.23-1,.43-2-2.33-10.1-2.33-10.1Z" style="fill:#ffa8a7"></path><path d="M217.76,212.4c-1.19,6.7-1.56,10.49.79,17.26s7.85,17.51,17.31,22.81c7.83,4.38,19.68,8.85,22,9.88,1.8.8,2.4,2.74,3.16,7.6.69,4.38,2.81,9.16,7.88,18.13,5.36,9.47,8.7,15.28,8.7,15.28a22.29,22.29,0,0,1,9.83-3.6s-11.24-41.92-13.3-47.66-17-14.18-23.45-17.88-10-6-17.34-11Z" style="fill:#37474f"></path><path d="M261.28,261.79c-.69-1.73-8.15-5-8.15-5l-15.68-13.19c3.58-4,4.18-10.48,4.18-10.48a22.76,22.76,0,0,1-7.73,10.48c3.3,2.56,17.53,16.09,17.56,16.12,3.06,1.26,5.48,2.21,6.39,2.62,1.8.8,2.4,2.74,3.16,7.6a29.73,29.73,0,0,0,2.31,7.36,21.71,21.71,0,0,1-.69-4.73A39.17,39.17,0,0,0,261.28,261.79Z" style="fill:#263238"></path><path d="M279.65,317.7a5.4,5.4,0,0,0,.34,1.91c.35.76,2.12,1.89,3.25,2.42a7.26,7.26,0,0,1,3.57,3.7,12.82,12.82,0,0,0,6.06,5.84,18.36,18.36,0,0,0,10.89.91c4.54-.9,4.85-3.59,4.85-3.59s.19-2.53-.95-2.91S279.65,317.7,279.65,317.7Z" style="fill:#263238"></path><path d="M278.48,306.6a24.23,24.23,0,0,1,.3,6.54c-.09,1.32-.12,3.4.87,4.56,1.38,1.83,4.26,2.38,6.14,4.88s4.66,7,10.64,8.1,10.46-.92,11.53-2.63,0-3.3-3.83-5.28c-4.09-2.11-9.55-8.53-9.55-8.53a22.86,22.86,0,0,1-3.85-6.41l-1.22-4.36c-.32-.9-6.85.78-7.53,2.06l.8,4L281,305.78Z" style="fill:#455a64"></path><path d="M292.54,329.33a7.57,7.57,0,0,1,4.29-6.55c4.44-2.38,7.2-1,8.59,0,1.66,1.14,4.05,3.55,2.67,5.37s-3.94,2.92-8.52,3.06A10.92,10.92,0,0,1,292.54,329.33Z" style="fill:#fafafa"></path><path d="M286.12,315.53a.53.53,0,0,0,.4-.22c.5-.72,3.72-3.44,6.89-2.63.15-.36-.12-.73-.77-1.11-3.33-.23-6.38,2.33-7,3.2a.48.48,0,0,0,.15.68A.58.58,0,0,0,286.12,315.53Z" style="fill:#fafafa"></path><path d="M295.26,315a1.55,1.55,0,0,0-.91-1.08,9.46,9.46,0,0,0-6.56,3.22.47.47,0,0,0,.15.68.48.48,0,0,0,.31.08.5.5,0,0,0,.4-.22C289.13,317,292.19,314.42,295.26,315Z" style="fill:#fafafa"></path><path d="M292,310.53a.9.9,0,0,0-.64-1.23c-3.63-.79-7.16,2.13-7.8,3.07a.48.48,0,0,0,.14.69.6.6,0,0,0,.31.08.54.54,0,0,0,.41-.23C284.93,312.14,288.6,309.06,292,310.53Z" style="fill:#fafafa"></path><path d="M300.32,320a2.89,2.89,0,0,0-1.44-1.3A9.34,9.34,0,0,0,292,322a.48.48,0,0,0,.15.68.58.58,0,0,0,.31.08.56.56,0,0,0,.41-.22C293.43,321.73,297,318.74,300.32,320Z" style="fill:#fafafa"></path><path d="M290.37,320.32a.54.54,0,0,0,.41-.23c.49-.71,3.64-3.37,6.78-2.64a1.78,1.78,0,0,0-1.08-1.11,9.4,9.4,0,0,0-6.56,3.21.49.49,0,0,0,.14.69A.6.6,0,0,0,290.37,320.32Z" style="fill:#fafafa"></path><path d="M234.3,233.13a52.37,52.37,0,0,1-4.74,6l1.35,1.13A19.09,19.09,0,0,0,234.3,233.13Z" style="fill:#37474f"></path><path d="M209.9,175.13a109.57,109.57,0,0,0-12.91,3.3s3.66,7,3.22,12.89a14,14,0,0,1-6.5,10.62c.53,5,1.07,11.12,1.47,17.64a91.34,91.34,0,0,0-1.47,16.24s11.91,6.24,25.51,3.41c14.13-2.94,18.58-11.84,18.58-11.84l-6-9.31,2.32-11.68A13,13,0,0,0,238,193.12c-2.85-10.56-11.35-19.27-11.35-19.27-2.66-.07-7.08.25-9,.35C217.67,174.2,214.64,174.46,209.9,175.13Z" style="fill:#f5f5f5"></path><path d="M219.22,239.23a35.85,35.85,0,0,0,4.17-1.14,6.9,6.9,0,0,0,.19-1.58,4,4,0,0,0-.48-2.07,4.89,4.89,0,0,0-2.72-1.82c-2.79-1-5.77-1.21-8.6-2s-5.68-2.33-7-5a9,9,0,0,1,.27-7.9c.66-1.34,1.59-2.65,1.6-4.14,0-2-1.58-3.58-2.62-5.29-4-6.49,0-15.29-2.84-22.35a5.54,5.54,0,0,0-1.85-2.6l-.43-.27a22,22,0,0,1,1.31,8.23,14,14,0,0,1-6.5,10.62c.53,5,1.07,11.12,1.47,17.64a91.34,91.34,0,0,0-1.47,16.24S205.62,242.06,219.22,239.23Z" style="fill:#e6e6e6"></path><path d="M217.19,128.13a26.87,26.87,0,0,0-8,1.39c-2.75,1.08-5.23,3.32-5.76,6.23a1,1,0,0,1-.15.42.87.87,0,0,1-.37.25,8.85,8.85,0,0,0-4.61,4.32,15.75,15.75,0,0,0-1.28,7.95c.5,11.57,7,20.29,10.67,19.87l12-1.3a13.09,13.09,0,0,0,9.47-3.84,7.16,7.16,0,0,0,1.6-1.92,12.61,12.61,0,0,0,.84-3c.4-2,.57-4.07.87-6.11a6.74,6.74,0,0,1,.62-2.21,7.81,7.81,0,0,1,2.76-2.46,12.85,12.85,0,0,0,3.81-3.6,5.88,5.88,0,0,0,.77-5.05,3.86,3.86,0,0,0-4.12-2.58c1.89-2.89,2.94-7.43-.37-9.73a8.64,8.64,0,0,0-6.19-1.11,56,56,0,0,0-6.23,1.65A35,35,0,0,1,217.19,128.13Z" style="fill:#263238"></path><path d="M230.11,140.23c2.19,1.38,4.66,5.06,4.08,16.81-.5,10-3.79,12.34-5.44,13s-4.75.15-7.78-.44l-.17,4.13s3.64,5.14,2.19,8.2c-.66,1.39-3.83,2.4-8.13-.08a33.93,33.93,0,0,1-7.39-6.12l.45-13.82s-1.84,1.69-4.81-1c-2.44-2.26-3.19-6-1.18-7.91a4.37,4.37,0,0,1,6.91,1.57s0-5,7.25-7.35C221.53,145.47,227.81,145.14,230.11,140.23Z" style="fill:#ffa8a7"></path><path d="M211.72,149.59c-.81.81-1,4.29-1.06,6.5a2,2,0,0,1-1.93,2h0l.11-3.51S208.12,149.06,211.72,149.59Z" style="fill:#263238"></path><path d="M236.73,148.9l-.6,0a18.3,18.3,0,0,0-5.91,1.3c-1.85.93-2.48,1.71-3.53,1.91s-1.86-.32-3.91-.53a20.32,20.32,0,0,0-6.35,1l-.63.19a1.19,1.19,0,0,0-.64,1.2,2.1,2.1,0,0,0,.69,1.12,1.29,1.29,0,0,1,.23.46,20.82,20.82,0,0,0,1,3.26,3.86,3.86,0,0,0,.89,1.08,4,4,0,0,0,.43.28l.25.12a3.68,3.68,0,0,0,.73.21h.13l.19,0h.2a4.56,4.56,0,0,0,.63,0l.27,0,.34-.05a5.06,5.06,0,0,0,4.18-3.34c.56-1.41.29-3.21,1.48-3.43H227c.89,0,.89,1.74,1.52,2.84a4.28,4.28,0,0,0,.93,1.16l.21.16.12.08.12.07.1.06.12.06.09,0,.07,0a3.12,3.12,0,0,0,1.06.23h.1a6,6,0,0,0,1.27-.11,4.31,4.31,0,0,0,3.53-3.05,23.29,23.29,0,0,0,.53-3.55,1.15,1.15,0,0,1,.2-.49,2.74,2.74,0,0,0,.47-1.36C237.45,149.31,237.06,148.88,236.73,148.9ZM224.55,156a4.48,4.48,0,0,1-.79,2h0a4.14,4.14,0,0,1-2.77,1.55,2.83,2.83,0,0,1-2.8-.8.94.94,0,0,1-.09-.12.48.48,0,0,1-.09-.11,1,1,0,0,1-.08-.11l-.06-.1a.25.25,0,0,1,0-.07l0-.07-.06-.12h0l-.16-.36h0a1.8,1.8,0,0,1-.08-.21,3.42,3.42,0,0,1-.11-.35l0-.07,0-.06c-.26-.87-.6-2.6-.18-3.08a5.62,5.62,0,0,1,3.52-1.29h.21c.3,0,.6,0,.9,0l.34,0a5.84,5.84,0,0,1,.88.12l.27.06.3.09.06,0,.1,0a1.56,1.56,0,0,1,.61.37C224.75,153.8,224.71,155,224.55,156Zm11.26-2.48a4.48,4.48,0,0,1-1.65,3.23,3.62,3.62,0,0,1-1.42.58,2.81,2.81,0,0,1-3-.81h0l-.06-.08-.07-.08,0,0a.57.57,0,0,1-.08-.13l-.09-.15,0-.07,0,0,0-.07s0,0,0,0a4.59,4.59,0,0,1-.23-.64,4.41,4.41,0,0,1-.1-2.74,6.2,6.2,0,0,1,3.08-1.92,7.33,7.33,0,0,1,.89-.23l.1,0,.12,0,.3,0,.12,0h.14l.25,0h.66l.1,0h.13l.22.05h0a1.4,1.4,0,0,1,.49.22C236.07,150.8,236,152.62,235.81,153.56Z" style="fill:#37474f"></path><path d="M215.55,153l-10-1a4.4,4.4,0,0,1,3,2l6.94.72Z" style="fill:#37474f"></path><path d="M222.39,155a1.28,1.28,0,0,1-1.22,1.33,1.31,1.31,0,1,1,1.22-1.33Z" style="fill:#263238"></path><path d="M222.72,162.91l3.52,1.23a1.83,1.83,0,0,1-2.34,1.21A2,2,0,0,1,222.72,162.91Z" style="fill:#f28f8f"></path><path d="M233.19,148.51l-3.25-.46a1.64,1.64,0,0,1,3.25.46Z" style="fill:#263238"></path><path d="M221.19,149.66l-3,1.36a1.64,1.64,0,0,1,3-1.36Z" style="fill:#263238"></path><path d="M232.29,153.67a1.25,1.25,0,1,1-1.28-1.28A1.28,1.28,0,0,1,232.29,153.67Z" style="fill:#263238"></path><path d="M226.72,153.72l.67,7.68,3.84-1.6L227,153.68A1.3,1.3,0,0,0,226.72,153.72Z" style="fill:#f28f8f"></path><path d="M221,169.61c-3.2-.5-9.74-2.57-10.7-5.21a6.77,6.77,0,0,0,2.22,3.39c1.93,1.74,8.4,3.82,8.4,3.82Z" style="fill:#f28f8f"></path><path d="M252.94,202.62a3.16,3.16,0,0,1,1.57-2.47c1.65-1.22,3.8-2.19,4.5-5.22l2.27,1.31-3.83,6.43Z" style="fill:#BA68C8"></path><path d="M252.94,202.62a3.16,3.16,0,0,1,1.57-2.47c1.65-1.22,3.8-2.19,4.5-5.22l2.27,1.31-3.83,6.43Z" style="fill:#fff;opacity:0.75"></path><path d="M252.94,202.62s-2.48-1.25-7.91-.13-9.87,2.58-20.3,2.35l2.71,1.56,27.09-1.57Z" style="fill:#BA68C8"></path><path d="M252.94,202.62s-2.48-1.25-7.91-.13-9.87,2.58-20.3,2.35l2.71,1.56,27.09-1.57Z" style="fill:#fff;opacity:0.75"></path><polygon points="224.73 204.84 215.05 236.01 217.75 237.57 227.44 206.4 224.73 204.84" style="fill:#BA68C8"></polygon><polygon points="224.73 204.84 215.05 236.01 217.75 237.57 227.44 206.4 224.73 204.84" style="fill:#fff;opacity:0.8"></polygon><polygon points="224.73 204.84 215.05 236.01 217.75 237.57 227.44 206.4 224.73 204.84" style="opacity:0.1"></polygon><g style="opacity:0.1"><path d="M259,196.61a5.37,5.37,0,0,1-1.11,1.75,15.91,15.91,0,0,1-1.56,1.4,11.2,11.2,0,0,0-1.52,1.39,3.82,3.82,0,0,0-.54.85,1.93,1.93,0,0,0-.19.92l-.33.05a2.24,2.24,0,0,1,.26-1.1,3.84,3.84,0,0,1,.61-.88,10.36,10.36,0,0,1,1.61-1.36,15.67,15.67,0,0,0,1.6-1.33A5.23,5.23,0,0,0,259,196.61Z"></path><path d="M258.57,198.36a5.78,5.78,0,0,1-.83,1.07c-.32.33-.64.65-.94,1a7.43,7.43,0,0,0-.82,1.05,2.83,2.83,0,0,0-.42,1.2l-.34,0a3.18,3.18,0,0,1,.55-1.29,7.62,7.62,0,0,1,.91-1l1-.92A5.37,5.37,0,0,0,258.57,198.36Z"></path><path d="M235.16,205.07a40.93,40.93,0,0,0,4.42-.65c1.46-.29,2.91-.66,4.36-1a20.77,20.77,0,0,1,4.44-.57,15.4,15.4,0,0,1,2.25.09,7.13,7.13,0,0,1,1.12.21,2.73,2.73,0,0,1,1.07.52l-.24.24a2.44,2.44,0,0,0-.91-.46,7.84,7.84,0,0,0-1.07-.23,14.81,14.81,0,0,0-2.21-.12,19.89,19.89,0,0,0-4.42.49c-1.45.31-2.91.64-4.37.91A41.45,41.45,0,0,1,235.16,205.07Z"></path><path d="M242.33,204.93c.84-.11,1.67-.29,2.5-.44s1.67-.31,2.51-.43a16.64,16.64,0,0,1,2.55-.17,7.23,7.23,0,0,1,2.54.47l-.13.31a6.87,6.87,0,0,0-2.42-.53,16.34,16.34,0,0,0-2.52.09c-.84.08-1.68.21-2.52.34S243.17,204.85,242.33,204.93Z"></path></g><polygon points="261.28 194.68 256.82 202.3 246.43 235.72 247.78 236.5 252.24 227.17 262.63 195.46 261.28 194.68" style="fill:#BA68C8"></polygon><polygon points="258.17 203.08 262.63 195.46 252.24 227.17 247.78 236.5 258.17 203.08" style="opacity:0.2"></polygon><polygon points="252.36 204.87 225.65 206.58 215.26 240 216.61 240.78 243.33 239.07 253.72 205.65 252.36 204.87" style="fill:#BA68C8"></polygon><polygon points="227 207.36 216.61 240.78 243.33 239.07 253.72 205.65 227 207.36" style="opacity:0.2"></polygon><path d="M221.31,239.23a.18.18,0,0,1-.13-.06.18.18,0,0,1,0-.16,1.68,1.68,0,0,0-.3-1.57,1.66,1.66,0,0,0-1.46-.66.15.15,0,0,1-.14-.06.16.16,0,0,1,0-.15l7.9-25.42a.17.17,0,0,1,.15-.12,3.63,3.63,0,0,0,3.22-2.53.17.17,0,0,1,.15-.12L249,207.21a.14.14,0,0,1,.14.06.14.14,0,0,1,0,.15,1.73,1.73,0,0,0,.29,1.58,1.7,1.7,0,0,0,1.47.65.2.2,0,0,1,.14.06.22.22,0,0,1,0,.16l-7.9,25.42a.17.17,0,0,1-.15.11,3.64,3.64,0,0,0-3.22,2.54.16.16,0,0,1-.15.11l-18.35,1.18Zm-1.69-2.78a2,2,0,0,1,1.91,2.43l18-1.15a4,4,0,0,1,3.36-2.65l7.8-25.09a2.06,2.06,0,0,1-1.91-2.44l-18,1.16a4,4,0,0,1-3.36,2.64Z" style="fill:#fafafa"></path><polygon points="225.65 206.58 227 207.36 216.61 240.78 215.26 240 225.65 206.58" style="opacity:0.30000000000000004"></polygon><path d="M253.72,205.65l4.45-2.57L247.78,236.5c-.69,1.8-2.22,2.61-4.45,2.57Z" style="fill:#BA68C8"></path><path d="M253.72,205.65l4.45-2.57L247.78,236.5c-.78,1.91-2.35,2.63-4.45,2.57Z" style="opacity:0.30000000000000004"></path><path d="M256.67,202.21a4.29,4.29,0,0,0-3.73.41c-1.22.71-1.55,1.67-.72,2.16l1.5.87,4.45-2.57-1.35-.78Z" style="fill:#455a64"></path><path d="M251.34,213.28c1.6,0,3.35-.17,4.12-1.5l1-3.31a4.63,4.63,0,0,1-4.27,2Z" style="fill:#e0e0e0"></path><path d="M256.82,202.3c-.27,1.28-1.91,2.08-4.46,2.57l1.36.78a5.43,5.43,0,0,0,4.45-2.57Z" style="fill:#BA68C8"></path><path d="M197.89,179.3c-4,.24-8.29,1.57-10.12,8.85s-4.62,30.8-5,34.06-.46,5.92,7.42,8.44c8.89,2.84,23.26,4,27.32,4.18,7.49.4,12.48-1.8,14.87-6.1s3.06-10-3.64-7.26c-7.13,3-10.12,3-10.12,3l1.36-4.4c-2.23,1-4.1,4-6.34,4.4-2,.33-17.09-4.9-17.09-4.9l3.25-20.36S204.18,184.75,197.89,179.3Z" style="fill:#ffa8a7"></path><path d="M199.13,177.77c-4.08.89-6.26,1.22-9.31,4.21S187,188,186,194.45c-1,6.22-1.79,15.49-1.79,15.49s7,4.29,13.47,2.82c.47-2.44,2.19-11,3.22-15.95a35.09,35.09,0,0,0,.22-13.81C200.66,180.81,200,178.8,199.13,177.77Z" style="fill:#455a64"></path><path d="M259.65,204.38c-.47-1.53-2.2,1.35-3,5.76-.73,4.23-1.73,8.65-1.73,8.65l-1.16,3.6s2.79-1.73,5.07-6.46S261,208.71,259.65,204.38Z" style="fill:#ffa8a7"></path></g></g><g id="freepik--character-1--inject-9"><g id="freepik--character--inject-9"><path d="M96.91,239a65.11,65.11,0,0,1,1.28,8.14c.59,6.36,3.27,36.88,4.47,39s12.81,13.6,12.81,13.6a26,26,0,0,1,9.84-8.5l-7.67-10.77s-2.85-20.49-3.33-25.54S112.57,237.8,96.91,239Z" style="fill:#BA68C8"></path><path d="M96.91,239a65.11,65.11,0,0,1,1.28,8.14c.59,6.36,3.27,36.88,4.47,39s12.81,13.6,12.81,13.6a26,26,0,0,1,9.84-8.5l-7.67-10.77s-2.85-20.49-3.33-25.54S112.57,237.8,96.91,239Z" style="opacity:0.30000000000000004"></path><path d="M133,378.4s2.89,11.35,4.83,14.91c2.2,4,5.26,9.45,8.62,13.2.73.81,2.39,2.32,3,3a1.3,1.3,0,0,1-.1,2c-1.44,1.42-7.64,1.87-11.16-.68s-7.42-8.71-9.53-10.77l-2.77-2.75a2.82,2.82,0,0,1-.75-2.66c.07-.27.14-.59.23-1,.74-3.36-3.28-11.85-3.28-11.85C125,377.62,129.21,377.79,133,378.4Z" style="fill:#b16668"></path><path d="M124.92,398.06a3.3,3.3,0,0,0,.2,1.68c.34.76,2.54,2.11,3.67,2.64s2.94,3.31,4,5a14.63,14.63,0,0,0,6,5.83,18.38,18.38,0,0,0,10.87.91c4.52-.9,4.83-3.59,4.83-3.59s.19-2.52-.94-2.89Z" style="fill:#263238"></path><path d="M124.75,390.29a5.62,5.62,0,0,1,0,1.21c-.12,1.25-.22,2-.27,3.47a7.31,7.31,0,0,0,.49,3.09c1.37,1.82,4.54,2.37,6.41,4.86s5,8.3,11,9.36,10.44-.91,11.5-2.62,0-3.29-3.82-5.27c-4.08-2.1-9.92-9.78-9.92-9.78-.5-.58-.94-1.23-1.38-1.84a8.75,8.75,0,0,1-1.32-2.24,9.74,9.74,0,0,1-.48-2.67.34.34,0,0,0-.07-.22.29.29,0,0,0-.2-.07,10.25,10.25,0,0,0-6.35,1.48,1.69,1.69,0,0,0-.52.43,1.93,1.93,0,0,0-.2.52l-.39,1.44a1.33,1.33,0,0,1-.6,1c-.44.19-.92-.12-1.29-.41s-.64-1-1-1.29A2.07,2.07,0,0,0,124.75,390.29Z" style="fill:#455a64"></path><path d="M69.28,297.21c-2,15.1-1.61,19.57,5.57,26.81,3.79,3.81,8.73,7.48,16.82,13.06,8.84,6.09,10.82,6.62,13,8.16a11.13,11.13,0,0,1,4.9,7.07c.76,3.95,1.47,7.86,5.33,16.05,3,6.44,6.42,12.34,8.12,15.61,2.57.44,9-.8,10.67-3-.93-4.88-6.25-39.46-8.53-44.59s-20.29-20.51-20.29-20.51-1.43-9.3,0-15.36Z" style="fill:#37474f"></path><path d="M161.64,363.8s2.9,11.35,4.84,14.91c2.2,4,5.26,9.46,8.62,13.2.73.82,2.39,2.33,3,3a1.29,1.29,0,0,1-.1,2c-1.44,1.43-7.64,1.87-11.16-.67s-7.42-8.72-9.53-10.78l-2.77-2.74a2.81,2.81,0,0,1-.75-2.67c.07-.27.14-.59.22-1,.75-3.37-3.27-11.86-3.27-11.86C153.64,363,157.87,363.19,161.64,363.8Z" style="fill:#b16668"></path><path d="M153.59,383.46a3.34,3.34,0,0,0,.2,1.69c.34.76,2.54,2.11,3.67,2.63s2.93,3.31,3.95,5c1.41,2.27,3.49,4.71,6.05,5.82a18.3,18.3,0,0,0,10.87.91c4.52-.9,4.83-3.58,4.83-3.58s.19-2.52-.95-2.9Z" style="fill:#263238"></path><path d="M153.42,375.7a5.64,5.64,0,0,1,0,1.21c-.12,1.25-.22,2-.27,3.46a7.13,7.13,0,0,0,.49,3.09c1.37,1.83,4.54,2.37,6.41,4.87s5.05,8.29,11,9.35,10.43-.91,11.5-2.62,0-3.29-3.82-5.27c-4.08-2.1-9.92-9.78-9.93-9.78-.49-.58-.93-1.22-1.37-1.84a8.75,8.75,0,0,1-1.32-2.24,10.07,10.07,0,0,1-.49-2.67.3.3,0,0,0-.06-.22.35.35,0,0,0-.21-.07,10.31,10.31,0,0,0-6.34,1.48,1.59,1.59,0,0,0-.52.44,1.81,1.81,0,0,0-.2.52l-.39,1.43a1.33,1.33,0,0,1-.6,1c-.44.19-.92-.11-1.29-.41s-.64-1-1.05-1.28A2.07,2.07,0,0,0,153.42,375.7Z" style="fill:#455a64"></path><path d="M74.88,300.63C73.8,306.71,102.33,319,102.33,319s3.91,1.47,11.88,5.36a184.68,184.68,0,0,1,18.53,10c2.25,1.39,4,2.16,4.66,5.56.76,3.95.42,5.7,5.43,15,3.37,6.27,7.14,11.17,8.84,14.43,2.57.44,9-.79,10.67-3-.93-4.88-6-39.59-8.53-44.59C150.21,314.72,114,296.4,114,296.4Z" style="fill:#37474f"></path><path d="M114.41,324.41l-7-9.47a19,19,0,0,0,7.49-11.87s-.1,8.13-4.41,12Z" style="fill:#263238"></path><path d="M82.46,240.49c-8.79,2.17-14.6,4.43-16.18,6.16-3.33,8,1.93,58,1.93,58,10.08,7.55,41.24,3.4,45.81-8.28,0,0-2.18-35.84-3.22-42.33-1.2-7.49-5.77-15.14-15.86-15.13Z" style="fill:#f5f5f5"></path><path d="M79.53,300.77c-2.8-3.8-3.85-13.83-3.85-13.83S74.41,260.76,73,254.57L65.1,265l3.11,39.72c.29.22.61.43.93.63l.33.19.71.38.42.2.72.32.46.18.8.29L73,307q.51.17,1,.3l.3.08c.45.12.91.22,1.39.32l.38.07,1.07.19.55.08,1,.13.59.07,1,.09.6,0,1.1.06.51,0q.81,0,1.62,0h.26l1.4,0,.61,0c.36,0,.72,0,1.08-.06l.67,0,1-.09.69-.06,1.05-.12.65-.08,1.26-.18.42-.07c.55-.09,1.09-.18,1.63-.29l.57-.11,1.08-.23.67-.16c.32-.07.64-.15.95-.24s.46-.12.68-.18l.92-.26.66-.2,1-.31.56-.19,1.42-.53.42-.17,1-.42.55-.26.8-.38.55-.29.73-.4.52-.31c.24-.14.47-.29.7-.44l.46-.3c.29-.19.56-.39.82-.59l.25-.19h0C96.29,306.79,82.34,304.57,79.53,300.77Z" style="fill:#ebebeb"></path><path d="M110.9,252.85c4-.3,13.37,5.11,14.95,8.14s9.3,45.54,6.13,49.87c-4,5.43-22.59,16.59-31.82,16.84-7.62.2-15.44-5.09-16.72-7.06-2.09-3.22-2.37-48.83-.18-52.8C86.81,261.4,105.81,253.23,110.9,252.85Z" style="fill:#BA68C8"></path><path d="M110.9,252.85c4-.3,13.37,5.11,14.95,8.14s9.3,45.54,6.13,49.87c-4,5.43-22.59,16.59-31.82,16.84-7.62.2-15.44-5.09-16.72-7.06-2.09-3.22-2.37-48.83-.18-52.8C86.81,261.4,105.81,253.23,110.9,252.85Z" style="fill:#fff;opacity:0.30000000000000004"></path><path d="M84.89,322.1c2.87,2.36,9.14,5.76,15.27,5.61,9.23-.26,27.86-11.42,31.82-16.85,3.16-4.32-4.46-46.69-6.13-49.87s-11-8.43-14.94-8.14-16.67,6-23.57,10.92l4.1,2.42c4.11,2,6.65,7.95,7.47,22.42s2.34,34,.15,36.24-6.94,1.09-7.22,1A24.3,24.3,0,0,1,84.89,322.1Z" style="fill:#fff;opacity:0.35000000000000003"></path><path d="M103,323.61A7.36,7.36,0,0,0,104.1,320a1.77,1.77,0,0,0-.49-1.31,2.42,2.42,0,0,0-1-.45c-2.82-.81-5.86-1.1-8.39-2.6a1.48,1.48,0,0,1-.53-.46.59.59,0,0,1,0-.67.84.84,0,0,1,.47-.23c.81-.18,1.65-.14,2.48-.26a6.26,6.26,0,0,0,3.25-1.56,2.25,2.25,0,0,0,.65-.93,1,1,0,0,0-.27-1,1.47,1.47,0,0,0-.72-.24c-2.63-.42-5-1.7-7.57-2.17-2.39-.43-4.89-.25-7.19-1a9,9,0,0,1-2.88-1.64c.26,7.88.77,14.17,1.5,15.29a8.14,8.14,0,0,0,3.92,2.68c1.63.7,3.31,1.28,5,1.87a19.34,19.34,0,0,0,5.81,1.35,5.18,5.18,0,0,0,1.62-.19A5.88,5.88,0,0,0,103,323.61Z" style="opacity:0.1"></path><path d="M129.75,279.35c-.6-3.63-1.24-7.06-1.82-10a17.52,17.52,0,0,0-2.05-1.26l-25.63,9-2.1,3.37c.33,2.35.59,5,.76,8.1.07,1.22.15,2.48.22,3.77a10.27,10.27,0,0,0,6.62.62,21.06,21.06,0,0,0,.6,4c.43,1.16,2.81,3.15,3.78.36a12.39,12.39,0,0,0,0-6.28l10.27-5.28s-.11,3.51.54,4.51,2.8,1.48,3.68-.8,0-6.12,0-6.12A26.75,26.75,0,0,0,129.75,279.35Z" style="opacity:0.1"></path><path d="M111.32,252.83c4.38-.28,12.43,3.73,14.88,7s4.65,13.28,3.2,16.33-12,9.61-19.19,13.1c-5.78,2.79-8.92,2.35-11.11,1-1.39-.86-1.8-3.69-2-5.79-.6-5.39-.33-8.31-3.79-11.28s-9.44-5.29-10.28-2.84c0,0-1.53-3.52,5-7.41C98.81,256.51,105.91,253.16,111.32,252.83Z" style="fill:#BA68C8"></path><path d="M111.32,252.83c4.38-.28,12.43,3.73,14.88,7s4.65,13.28,3.2,16.33-12,9.61-19.19,13.1c-5.78,2.79-8.92,2.35-11.11,1-1.39-.86-1.8-3.69-2-5.79-.6-5.39-.33-8.31-3.79-11.28s-9.44-5.29-10.28-2.84c0,0-1.53-3.52,5-7.41C98.81,256.51,105.91,253.16,111.32,252.83Z" style="fill:#fff;opacity:0.7000000000000001"></path><path d="M109.57,280.16l-3.82,1.73s1.22,9.47,1.5,14.14c0,0,1,2,1.91,2.23s1.85-2.05,1.93-3.74A136.53,136.53,0,0,0,109.57,280.16Z" style="fill:#455a64"></path><path d="M109.74,281.08l-3.89,1.62a.67.67,0,0,1-1-.55l-.27-1.92a1.06,1.06,0,0,1,.59-1.06l3.91-1.69a.67.67,0,0,1,1,.55l.27,2A1,1,0,0,1,109.74,281.08Z" style="fill:#37474f"></path><path d="M109.07,292.65a1.9,1.9,0,0,0-1,1.73.77.77,0,0,0,1.14.74,1.88,1.88,0,0,0,1-1.73C110.16,292.7,109.65,292.36,109.07,292.65Z" style="fill:#e0e0e0"></path><path d="M123.85,273l-3.73,1.92s1.1,9.36,1.62,14c0,0,1.14,1.9,2,2.13s1.75-2.14,1.74-3.84A113.63,113.63,0,0,0,123.85,273Z" style="fill:#455a64"></path><path d="M124.06,273.88l-3.8,1.82a.68.68,0,0,1-1-.5l-.37-1.9a1.06,1.06,0,0,1,.53-1.09l3.82-1.89a.67.67,0,0,1,1,.5l.37,2A1,1,0,0,1,124.06,273.88Z" style="fill:#37474f"></path><path d="M123.38,285.43a1.93,1.93,0,0,0-.9,1.78.78.78,0,0,0,1.18.68,1.9,1.9,0,0,0,.9-1.78C124.48,285.42,124,285.11,123.38,285.43Z" style="fill:#e0e0e0"></path><path d="M129.49,295.47c.33,4.77.55,6.73.47,9a5.5,5.5,0,0,1-2.47,4.79c-2.21,1.79-11.86,7.66-14.73,9.25-3.5,1.93-7.36,3.32-7.48.52-.09-2.45-.47-7.66-.58-9.43-.14-2.2.83-3.69,5.18-6,4.12-2.23,13.24-8.13,15.79-9.49C127.82,293,129.39,294,129.49,295.47Z" style="fill:#BA68C8"></path><path d="M129.49,295.47c.33,4.77.55,6.73.47,9a5.5,5.5,0,0,1-2.47,4.79c-2.21,1.79-11.86,7.66-14.73,9.25-3.5,1.93-7.36,3.32-7.48.52-.09-2.45-.47-7.66-.58-9.43-.14-2.2.83-3.69,5.18-6,4.12-2.23,13.24-8.13,15.79-9.49C127.82,293,129.39,294,129.49,295.47Z" style="fill:#fff;opacity:0.7000000000000001"></path><path d="M80.55,214.8a13.11,13.11,0,0,0,12.84,13.38c7.09,0,11.29-6.14,12.84-13.36,2.85-13.21-5.74-13.38-12.83-13.39A13.12,13.12,0,0,0,80.55,214.8Z" style="fill:#263238"></path><path d="M74,220.21s2,9.64,2.75,11.22a4.2,4.2,0,0,0,2.42,2L79,226.69Z" style="fill:#263238"></path><path d="M76.48,206.4s-1.42-.35-2.92,2c-1.29,2-1.58,6.52.44,11.82l3.71.44Z" style="fill:#263238"></path><path d="M75.11,208.35l-4.55.09A2.15,2.15,0,0,1,72.63,206,2.52,2.52,0,0,1,75.11,208.35Z" style="fill:#263238"></path><path d="M74.55,207.27,71.18,204a2.18,2.18,0,0,1,3.2-.12A2.46,2.46,0,0,1,74.55,207.27Z" style="fill:#263238"></path><path d="M78.82,220.66c-.75.46-1.81-1-2.72-2s-3.8-1.94-5.3,1.33,1.11,6.41,3.19,7.59c3.27,1.84,4.7-.93,4.7-.93L79.34,242c1.9,5.29,17.2,6.44,14.07-.27V237a19,19,0,0,0,4.63.17c3-.48,4.87-2.94,5.78-6.31,1.45-5.41,2-9.78.78-20.42-1.35-11.66-14.37-11.79-21.41-7.19S78.82,220.66,78.82,220.66Z" style="fill:#b16668"></path><path d="M95.06,208.65c-3.11-.31-6.18-.94-9.3-1.18a5.94,5.94,0,0,0-2,.1c-2.39.64-2.08,3.42-2.46,5.36-.66,3.34-1.2,9-2.46,9-.38,0-1.8-2.45-2.72-3.33a4.83,4.83,0,0,1-.83-2.55c-.24-1.39-.37-2.79-.47-4.19-.09-1.18-.21-2.39-.2-3.58a16.18,16.18,0,0,1,.31-4,7.06,7.06,0,0,1,1.66-3l.24-.26a15.92,15.92,0,0,1,5.58-3.75,33.53,33.53,0,0,1,9.42-2c3.21-.33,6.44-.5,9.61-1.15a.94.94,0,0,1,.55,0,.85.85,0,0,1,.45.71,4,4,0,0,1-1.61,3.91c2.15.17,4.62-.95,6.69-1.5a1.34,1.34,0,0,1,1.06,0,1.06,1.06,0,0,1,.41.6,3.84,3.84,0,0,1,.06,1.72,9.79,9.79,0,0,1-1.86,4.72,11.58,11.58,0,0,1-6.41,4.19A18.46,18.46,0,0,1,95.06,208.65Z" style="fill:#263238"></path><path d="M93.4,237s-7.52-1.53-9.85-2.83a7.78,7.78,0,0,1-3.22-3.32,11.05,11.05,0,0,0,1.83,3.92c1.7,2.27,11.24,4.08,11.24,4.08Z" style="fill:#9a4a4d"></path><path d="M92,219.29a1.38,1.38,0,0,1-1.33,1.44A1.45,1.45,0,1,1,92,219.29Z" style="fill:#263238"></path><path d="M89.85,213.53,87,215.17a1.82,1.82,0,0,1,.67-2.37A1.55,1.55,0,0,1,89.85,213.53Z" style="fill:#263238"></path><path d="M93,228.91,96,230.1A1.59,1.59,0,0,1,94,231.16,1.8,1.8,0,0,1,93,228.91Z" style="fill:#9a4a4d"></path><path d="M104.26,214.76l-2.61-2.09a1.55,1.55,0,0,1,2.27-.37A1.86,1.86,0,0,1,104.26,214.76Z" style="fill:#263238"></path><path d="M103.11,218.9a1.34,1.34,0,1,1-1.34-1.45A1.4,1.4,0,0,1,103.11,218.9Z" style="fill:#263238"></path><polygon points="95.96 217.78 96.11 226.22 100.9 225.13 95.96 217.78" style="fill:#9a4a4d"></polygon><path d="M70.37,244.59c-7.2,3-11.76,3.1-13.62,15.17-1.07,6.94-6.07,27.09-3.73,31.33,4.14,7.47,18.59,25,25.58,30.12,3,2.21,6.15,4.55,9.71,5.81,3.19,1.14,7.53,1.35,10.61-.22a6.65,6.65,0,0,0,3.34-4.06,2.83,2.83,0,0,0-.3-2.6,3.51,3.51,0,0,0-1.89-.94c-2.76-.7-5.64-1.34-7.91-3.07-.23-.18-.49-.46-.39-.74.16-.44,2.25-.17,2.68-.21a11.06,11.06,0,0,0,3.49-.79,2.67,2.67,0,0,0,1.29-1A1.16,1.16,0,0,0,99,311.9a1.69,1.69,0,0,0-.74-.23q-3-.45-5.88-1.07c-1.67-.35-3.3-.8-5-1a20,20,0,0,1-3.47-.49c-2.75-.91-9.7-8.7-11.87-11.95a60,60,0,0,1-5.49-10.28c.65-7.33,1.37-13,3.61-20.15S73.91,252.15,70.37,244.59Z" style="fill:#b16668"></path><path d="M71.06,244s-9.58,1.95-12.56,7.6S51,287.88,51.67,290.2c1.84,6.52,18.57,23.1,18.57,23.1s2.38-7,9-7.89l-11-18.47,5-25.77S75.32,250.47,71.06,244Z" style="fill:#BA68C8"></path><g style="opacity:0.30000000000000004"><path d="M71.06,244s-9.58,1.95-12.56,7.6S51,287.88,51.67,290.2c1.84,6.52,18.57,23.1,18.57,23.1s2.38-7,9-7.89l-11-18.47,5-25.77S75.32,250.47,71.06,244Z"></path></g></g></g></svg>