<?xml version="1.0" encoding="UTF-8" standalone="no"?>
<!-- Created with Inkscape (http://www.inkscape.org/) -->

<svg
   width="93.002487mm"
   height="191.69063mm"
   viewBox="0 0 93.002487 191.69062"
   version="1.1"
   id="svg5"
   xml:space="preserve"
   inkscape:version="1.2.2 (b0a8486541, 2022-12-01)"
   sodipodi:docname="background.svg"
   xmlns:inkscape="http://www.inkscape.org/namespaces/inkscape"
   xmlns:sodipodi="http://sodipodi.sourceforge.net/DTD/sodipodi-0.dtd"
   xmlns="http://www.w3.org/2000/svg"
   xmlns:svg="http://www.w3.org/2000/svg"><sodipodi:namedview
     id="namedview7"
     pagecolor="#505050"
     bordercolor="#eeeeee"
     borderopacity="1"
     inkscape:showpageshadow="0"
     inkscape:pageopacity="0"
     inkscape:pagecheckerboard="0"
     inkscape:deskcolor="#505050"
     inkscape:document-units="mm"
     showgrid="false"
     inkscape:zoom="0.64854097"
     inkscape:cx="654.54616"
     inkscape:cy="372.37432"
     inkscape:window-width="1920"
     inkscape:window-height="999"
     inkscape:window-x="0"
     inkscape:window-y="0"
     inkscape:window-maximized="1"
     inkscape:current-layer="layer1" /><defs
     id="defs2" /><g
     inkscape:label="Layer 1"
     inkscape:groupmode="layer"
     id="layer1"
     transform="translate(-60.046257,-40.885932)"><g
       id="g179"
       transform="translate(3.9421106,-1.6405014)"><path
         style="fill:#fcfcfd;stroke-width:0.264583"
         d="m 56.502464,191.35456 c 0,-26.27875 0.09508,-42.73021 0.246969,-42.73021 0.135833,0 1.832474,-0.29274 3.770313,-0.65055 5.923951,-1.09379 8.64654,-1.48661 11.842822,-1.7087 12.580611,-0.87417 20.98714,3.586 26.139575,13.86863 2.966657,5.92049 4.761137,14.14116 5.342407,24.47395 0.52657,9.36059 3.27646,17.90711 7.45261,23.16236 4.27243,5.3764 18.58406,14.84497 26.43238,17.48767 1.97997,0.66669 2.6129,0.75493 5.29167,0.73775 2.47067,-0.0159 3.31629,-0.12774 4.49792,-0.59518 0.80036,-0.31661 1.48497,-0.57572 1.52135,-0.5758 0.0364,-7e-5 0.0661,2.08346 0.0661,4.63008 v 4.63021 H 102.80455 56.502464 Z m 86.121876,-48.42362 c -19.53736,-2.65148 -30.1118,-6.14663 -34.2984,-11.3366 -3.03772,-3.76575 -3.502,-8.21132 -1.92416,-18.42416 0.89427,-5.78834 1.01033,-10.81634 0.29685,-12.86007 -1.08481,-3.107365 -2.43611,-4.434859 -6.17663,-6.067822 l -2.083079,-0.909392 -20.968229,-0.0032 -20.968228,-0.0032 V 68.058727 42.791019 h 11.483737 c 11.283461,0 11.58916,0.014 17.528645,0.802705 29.865634,3.965864 43.734854,8.67114 47.077004,15.971353 1.79092,3.911875 1.56587,6.805917 -1.31044,16.851517 -2.42578,8.472154 -2.69627,11.750104 -1.20727,14.630564 0.8063,1.559788 1.09347,1.839264 4.5484,4.426527 5.67012,4.246134 8.29403,5.508675 11.97055,5.759855 l 2.38125,0.16269 0.0497,21.10052 0.0497,21.10052 -0.97579,-0.028 c -0.53669,-0.0154 -2.99986,-0.30264 -5.47371,-0.63838 z"
         id="path187" /><path
         style="fill:#8d65fd;stroke-width:0.264583"
         d="m 139.05246,225.6507 c -2.71297,-0.78937 -3.71639,-1.2074 -7.32855,-3.05316 -7.94262,-4.05853 -17.22133,-10.79382 -20.42675,-14.8275 -4.17615,-5.25525 -6.92604,-13.80177 -7.45261,-23.16236 -1.39128,-24.7318 -9.646617,-37.07371 -25.64277,-38.33649 -4.480841,-0.35373 -8.794569,0.0616 -17.682034,1.70261 -1.937839,0.35781 -3.63448,0.65055 -3.770313,0.65055 -0.151328,0 -0.246969,-10.70732 -0.246969,-27.64896 V 93.326435 l 20.968228,0.0032 20.968229,0.0032 2.083079,0.909391 c 3.74052,1.632964 5.09182,2.960458 6.17663,6.067824 0.71348,2.04372 0.59742,7.07172 -0.29685,12.86007 -1.57784,10.21284 -1.11356,14.65841 1.92416,18.42416 4.31409,5.348 16.50519,9.21705 36.61434,11.62017 l 3.90344,0.46648 -0.067,40.62954 -0.067,40.62955 -1.32291,0.49756 c -1.98971,0.74834 -6.13083,0.85421 -8.33438,0.21306 z m 7.54063,-124.39088 c -3.69848,-0.29349 -6.34256,-1.571548 -11.97055,-5.786135 -3.45493,-2.587263 -3.7421,-2.866739 -4.5484,-4.426527 -1.489,-2.88046 -1.21851,-6.15841 1.20727,-14.630564 2.87631,-10.0456 3.10136,-12.939642 1.31044,-16.851517 -3.33263,-7.279419 -16.77171,-11.858339 -46.852929,-15.963574 l -5.55625,-0.758271 34.327399,-0.02611 34.32741,-0.02611 0.0684,29.368763 c 0.0376,16.15282 0.0684,29.350815 0.0684,29.328885 0,-0.0219 -1.07157,-0.12492 -2.38125,-0.22885 z"
         id="path185" /><path
         style="fill:#6c50be;stroke-width:0.264583"
         d="m 56.237879,138.37174 -0.13229,-95.845307 46.500521,2e-6 46.50052,10e-7 -0.065,29.434895 -0.065,29.434899 -0.0685,-29.302607 -0.0685,-29.302604 H 102.67146 56.503188 l -0.06651,95.713021 -0.06651,95.71302 z m 92.733131,45.83907 c 1e-5,-22.41021 0.0313,-31.5389 0.0694,-20.28597 0.0382,11.25292 0.0382,29.58855 -1e-5,40.74583 -0.0382,11.15728 -0.0694,1.95035 -0.0694,-20.45986 z m -0.0872,-41.93646 c 0,-0.3638 0.0601,-0.51263 0.13345,-0.33073 0.0734,0.1819 0.0734,0.47956 0,0.66146 -0.0734,0.1819 -0.13345,0.0331 -0.13345,-0.33073 z"
         id="path183" /><path
         style="fill:#1c1c1c;stroke-width:0.264583"
         d="m 56.104148,138.43789 c 10e-7,-52.678538 0.03041,-74.189406 0.06758,-47.801926 0.03717,26.387476 0.03717,69.488106 -2e-6,95.779166 -0.03717,26.29106 -0.06758,4.7013 -0.06758,-47.97724 z"
         id="path181" /></g></g></svg>
