<svg width="1598" height="625" viewBox="0 0 1598 625" fill="none" xmlns="http://www.w3.org/2000/svg">
<path d="M603.634 364.565L584.875 353.515L620.331 322.484L639.129 333.534L603.634 364.565Z" fill="#7F3E3B"/>
<path d="M591.879 348.285L612.702 360.113C613.077 360.319 613.331 360.612 613.417 360.937C613.503 361.263 613.415 361.599 613.169 361.883L602.115 375.293C601.827 375.615 601.444 375.891 600.99 376.103C600.536 376.315 600.022 376.459 599.482 376.525C598.941 376.591 598.387 376.577 597.855 376.485C597.323 376.393 596.825 376.224 596.394 375.99C589.038 371.619 578.569 365.262 569.15 359.898C558.136 353.622 558.875 354.534 545.798 347.212C538.014 342.76 542.723 336.297 546.615 337.691C564.363 343.994 566.075 344.745 585.847 346.81C588.018 346.905 590.107 347.416 591.879 348.285Z" fill="#263238"/>
<path opacity="0.2" d="M620.33 322.511L602.076 338.495L620.836 349.545L639.128 333.534L620.33 322.511Z" fill="black"/>
<path d="M745.769 275.254C875.022 281.718 908.377 299.178 968.275 284.507L973.918 246.021L896.74 225.879C896.74 225.879 803.643 217.028 731.836 230.224C657.187 243.929 606.396 326.266 606.396 326.266L638.622 342.358C638.622 342.358 663.375 294.913 745.769 275.254Z" fill="black"/>
<path d="M608.111 318.139L599.898 328.679L633.331 348.123L644.851 340.292L608.111 318.139Z" fill="#263238"/>
<path d="M621.187 542.542L505.983 530.5C496.063 529.455 486.583 526.953 478.188 523.163C469.792 519.374 462.676 514.386 457.321 508.537C451.966 502.688 448.498 496.114 447.15 489.26C445.802 482.407 446.607 475.434 449.511 468.814C452.456 462.196 457.433 456.092 464.103 450.916C470.773 445.74 478.98 441.613 488.168 438.815C497.356 436.017 507.309 434.613 517.354 434.699C527.398 434.785 537.298 436.358 546.382 439.312L651.739 473.615C658.032 475.666 663.044 479.209 665.86 483.596C668.675 487.984 669.106 492.923 667.073 497.511L653.257 528.73C651.194 533.296 646.824 537.2 640.939 539.735C635.055 542.269 628.046 543.265 621.187 542.542Z" fill="#4E52AC"/>
<path opacity="0.4" d="M621.187 542.542L505.983 530.5C496.063 529.455 486.583 526.953 478.188 523.163C469.792 519.374 462.676 514.386 457.321 508.537C451.966 502.688 448.498 496.114 447.15 489.26C445.802 482.407 446.607 475.434 449.511 468.814C452.456 462.196 457.433 456.092 464.103 450.916C470.773 445.74 478.98 441.613 488.168 438.815C497.356 436.017 507.309 434.613 517.354 434.699C527.398 434.785 537.298 436.358 546.382 439.312L651.739 473.615C658.032 475.666 663.044 479.209 665.86 483.596C668.675 487.984 669.106 492.923 667.073 497.511L653.257 528.73C651.194 533.296 646.824 537.2 640.939 539.735C635.055 542.269 628.046 543.265 621.187 542.542Z" fill="black"/>
<path d="M585.07 329.189C606.398 332.38 637.534 334.553 643.45 327.204C678.05 283.836 729.074 214.56 740.205 199.058C741.917 196.752 739.816 194.66 734.289 193.024L658.745 170.575C642.944 166.579 623.717 170.093 609.239 173.928C520.385 197.637 356.026 246.342 318.195 265.92C358.361 291.238 512.523 318.3 585.07 329.189Z" fill="#4E52AC"/>
<path opacity="0.2" d="M585.07 329.189C606.398 332.38 637.534 334.553 643.45 327.204C678.05 283.836 729.074 214.56 740.205 199.058C741.917 196.752 739.816 194.66 734.289 193.024L658.745 170.575C642.944 166.579 623.717 170.093 609.239 173.928C520.385 197.637 356.026 246.342 318.195 265.92C358.361 291.238 512.523 318.3 585.07 329.189Z" fill="black"/>
<path d="M1234.8 396.856C1243.13 396.99 1252.2 395.515 1244.8 390.151C1200.47 358.128 1128.7 307.331 1112.75 296.066C1110.45 294.401 1107.52 293.204 1104.3 292.606L1061.49 284.721C1053.35 283.514 1053.47 287.645 1054.99 291.534C1064.37 315.511 1087.53 363.089 1102.86 379.637C1141.63 392.699 1206.54 396.373 1234.8 396.856Z" fill="#4E52AC"/>
<path opacity="0.2" d="M1234.8 396.856C1243.13 396.99 1252.2 395.515 1244.8 390.151C1200.47 358.128 1128.7 307.331 1112.75 296.066C1110.45 294.401 1107.52 293.204 1104.3 292.606L1061.49 284.721C1053.35 283.514 1053.47 287.645 1054.99 291.534C1064.37 315.511 1087.53 363.089 1102.86 379.637C1141.63 392.699 1206.54 396.373 1234.8 396.856Z" fill="black"/>
<path d="M523.769 186.48C511.743 184.656 499.833 182.966 488.43 181.464L489.169 178.782C500.612 180.284 512.521 181.974 524.586 183.798L523.769 186.48Z" fill="#4E52AC"/>
<path d="M460.059 177.924C418.146 172.734 375.683 169.935 333.102 169.556C315.985 169.508 298.881 170.179 281.883 171.568L281.416 168.886C298.572 167.511 315.831 166.839 333.102 166.874C375.903 167.261 418.586 170.069 460.72 175.269L460.059 177.924Z" fill="#4E52AC"/>
<path d="M194.468 197.691C378.327 119.913 875.569 276.407 1143.26 317.254C1267.57 336.243 1191.48 405.921 1131.9 415.04C1072.31 424.159 342.364 457.952 102.345 382.856C-137.675 307.76 108.377 234.166 194.468 197.691Z" fill="#4E52AC"/>
<path d="M1116.56 416.703C1148.13 415.096 1178.33 407.172 1203.46 393.903C1228.58 380.634 1247.54 362.598 1258 342.009C1278.31 302.932 1292.71 274.959 1292.71 274.959C1276.81 268.678 1258.93 265.169 1240.61 264.739C1222.3 264.309 1204.11 266.97 1187.63 272.491L1049.89 318.675L1116.56 416.703Z" fill="#4E52AC"/>
<path opacity="0.2" d="M1109.91 361.855C1119.13 377.706 1145.75 396.534 1165.41 408.951C1186.27 403.159 1205.12 394.383 1220.71 383.204L1109.91 361.855Z" fill="black"/>
<path opacity="0.2" d="M1188.8 374.381C1164.1 375.973 1139.29 376.573 1114.5 376.178C1089.67 375.883 1064.84 374.488 1040.08 372.745C1015.33 371.001 990.693 368.293 966.134 365.396C867.861 353.247 771.768 333.614 676.998 311.193C653.295 305.614 629.632 299.848 605.774 294.028C593.748 291.185 581.994 288.262 569.228 285.58C562.573 284.4 555.995 282.898 549.184 282.04L538.948 280.752C535.555 280.278 532.124 279.937 528.674 279.733C500.843 277.56 472.668 279.016 445.618 284.024C432.273 286.626 419.257 289.972 406.698 294.028C394.21 298.09 382.199 302.815 370.775 308.162L362.252 312.293L354.04 316.637L346.256 321.063C343.998 322.377 341.702 323.745 339.328 324.978C330.065 330.128 320.335 335.089 310.449 339.89C290.568 349.45 269.949 358.26 248.683 366.281C227.891 374.254 206.209 381.07 183.842 386.664C173.439 389.283 162.738 391.301 151.85 392.699C148.814 393.074 145.818 393.369 142.938 393.53C175.487 400.55 208.682 406.06 242.3 410.025C253.315 406.162 264.018 401.979 274.565 397.741C297.054 388.564 318.779 378.527 339.639 367.676C350.109 362.312 360.345 356.599 370.386 350.645C372.877 349.17 375.368 347.614 377.82 346.113L384.436 342.063L390.975 338.335L397.786 334.768C406.974 330.152 416.654 326.019 426.742 322.404C436.751 318.862 447.164 315.893 457.878 313.526C479.392 308.978 501.956 307.259 524.392 308.457C527.213 308.54 530.021 308.755 532.799 309.101L541.206 309.906C546.81 310.549 552.337 311.649 557.903 312.588C569.345 314.679 581.255 317.308 593.32 319.829C617.294 325.005 641.425 330.262 665.633 335.331C762.466 355.607 861.128 373.201 961.931 383.124C987.151 385.484 1012.53 387.523 1037.83 388.837C1063.12 390.151 1088.73 390.795 1114.3 390.473C1139.91 390.253 1165.47 388.981 1190.86 386.664C1200.87 385.717 1210.82 384.581 1220.71 383.258C1226.81 378.99 1232.38 374.379 1237.37 369.473C1221.33 371.618 1205.1 373.254 1188.8 374.381Z" fill="white"/>
<path opacity="0.2" d="M752.775 416.703C752.775 416.703 570.241 416.032 396.774 404.634C392.882 404.365 381.712 390.768 369.841 387.388C368.557 396.829 370.97 402.837 364.081 402.327C263.746 394.844 142.237 377.706 94.8327 360.381C70.7023 300.894 17.4987 283.005 17.4987 283.005C-15.739 313.607 -8.88906 348.097 102.344 382.829C342.364 457.925 1072.31 424.132 1131.9 415.013L752.775 416.703Z" fill="black"/>
<path d="M396.812 366.12C391.233 366.138 385.796 367.335 381.237 369.551C376.677 371.767 373.215 374.894 371.317 378.509C369.42 382.124 369.179 386.054 370.627 389.767C372.075 393.48 375.143 396.797 379.415 399.27C499.405 465.837 723.584 571.937 779.123 598.086C787.572 602.036 797.089 604.773 807.107 606.132L943.327 624.343C959.634 626.515 966.095 620.213 959.245 611.201C916.9 555.55 819.367 442.53 762.738 404.178C636.248 373.871 484.538 367.193 396.812 366.12Z" fill="#4E52AC"/>
<path opacity="0.2" d="M761.96 575.745L395.217 379.342C383.229 372.932 365.754 381.005 370.697 390.875C372.389 394.186 375.413 397.098 379.415 399.269C499.406 465.837 723.585 571.936 779.124 598.086C787.573 602.036 797.09 604.772 807.107 606.132L943.327 624.343C951.5 625.442 957.183 624.343 959.985 621.956L837.582 601.117C810.083 596.385 784.324 587.743 761.96 575.745Z" fill="black"/>
<path d="M1099.13 347.641C1097.18 347.823 1095.36 348.418 1093.93 349.344C1092.49 350.27 1091.51 351.481 1091.13 352.808C1090.74 354.135 1090.96 355.513 1091.75 356.75C1092.55 357.987 1093.89 359.021 1095.58 359.71C1142.05 378.484 1227.48 407.289 1248.66 414.369C1251.87 415.433 1255.37 416.036 1258.93 416.14L1307.43 417.615C1313.22 417.802 1315.01 415.389 1311.94 412.519C1293.18 394.764 1251.03 359.12 1228.61 347.856C1182.53 341.848 1129.56 344.906 1099.13 347.641Z" fill="#4E52AC"/>
<path opacity="0.2" d="M1241.07 407.235L1099.55 352.254C1098.55 351.871 1097.39 351.716 1096.25 351.812C1095.12 351.907 1094.05 352.249 1093.21 352.787C1092.37 353.325 1091.79 354.033 1091.57 354.809C1091.35 355.585 1091.48 356.39 1091.96 357.109C1092.75 358.232 1094.02 359.166 1095.58 359.791C1142.05 378.565 1227.48 407.369 1248.66 414.45C1251.87 415.514 1255.37 416.116 1258.93 416.22L1307.42 417.695C1308.45 417.837 1309.52 417.782 1310.51 417.536C1311.5 417.29 1312.37 416.863 1313.03 416.3L1269.09 413.323C1259.23 412.667 1249.69 410.593 1241.07 407.235Z" fill="black"/>
<path d="M203.808 194.07C200.617 195.197 197.503 196.404 194.467 197.691C182.791 202.572 168.624 208.097 152.979 214.212C160.257 228.641 183.219 245.484 212.37 260.611L266.275 232.128C239.264 220.381 216.301 206.783 203.808 194.07Z" fill="white"/>
<path d="M285.502 239.852L237.436 272.331C249.683 277.641 262.381 282.441 275.46 286.706C279.488 287.996 283.857 288.704 288.297 288.785C292.737 288.866 297.154 288.32 301.275 287.179C305.397 286.038 309.135 284.326 312.259 282.151C315.383 279.975 317.827 277.382 319.44 274.53C322.403 269.272 322.377 263.437 319.369 258.191C316.36 252.946 310.589 248.676 303.21 246.235C297.333 244.223 291.379 242.078 285.502 239.852Z" fill="white"/>
<path d="M1333.69 338.388C1425.27 351.798 1661.44 378.618 1540.67 278.794C1680.39 376.982 1531.91 391.813 1404.45 396.802C1392.59 397.276 1380.72 395.893 1369.74 392.758C1358.76 389.623 1348.95 384.816 1341.05 378.698C1331.73 371.492 1323.31 363.758 1315.87 355.58C1314.18 353.656 1313.35 351.434 1313.48 349.189C1313.61 346.944 1314.68 344.773 1316.58 342.945C1318.47 341.116 1321.11 339.71 1324.15 338.901C1327.19 338.091 1330.51 337.913 1333.69 338.388Z" fill="#4E52AC"/>
<path opacity="0.2" d="M1333.69 338.388C1425.27 351.798 1661.44 378.618 1540.67 278.794C1680.39 376.982 1531.91 391.813 1404.45 396.802C1392.59 397.276 1380.72 395.893 1369.74 392.758C1358.76 389.623 1348.95 384.816 1341.05 378.698C1331.73 371.492 1323.31 363.758 1315.87 355.58C1314.18 353.656 1313.35 351.434 1313.48 349.189C1313.61 346.944 1314.68 344.773 1316.58 342.945C1318.47 341.116 1321.11 339.71 1324.15 338.901C1327.19 338.091 1330.51 337.913 1333.69 338.388Z" fill="white"/>
<path d="M986.178 33.4176C987.002 37.6124 985.394 41.8618 981.703 45.2452C976.721 49.6974 969.287 47.4445 966.563 42.5632C964.111 38.0843 963.721 30.387 970.727 27.705C972.258 27.1439 973.966 26.8514 975.699 26.8535C977.433 26.8556 979.139 27.1523 980.667 27.7171C982.195 28.282 983.497 29.0976 984.458 30.0919C985.42 31.0862 986.01 32.2285 986.178 33.4176Z" fill="#7F3E3B"/>
<path opacity="0.2" d="M986.178 33.4176C987.002 37.6124 985.394 41.8618 981.703 45.2452C976.721 49.6974 969.287 47.4445 966.563 42.5632C964.111 38.0843 963.721 30.387 970.727 27.705C972.258 27.1439 973.966 26.8514 975.699 26.8535C977.433 26.8556 979.139 27.1523 980.667 27.7171C982.195 28.282 983.497 29.0976 984.458 30.0919C985.42 31.0862 986.01 32.2285 986.178 33.4176Z" fill="black"/>
<path d="M973.296 35.0004C957.222 30.6824 971.583 7.13442 988.864 7.80492C991.199 -1.58208 1015.64 -2.06483 1031.68 4.02331C1044.43 8.95852 1054.86 16.3123 1061.72 25.2111C1073.2 38.4334 1092.55 39.6671 1091.38 44.4142C1089.82 50.6096 1071.57 41.92 1065.89 43.9315C1060.2 45.943 1091.18 50.2342 1090.87 56.6978C1090.56 63.1614 1070.44 54.9545 1064.13 53.1844C1057.83 51.4143 1052.96 55.0886 1067.48 60.9622C1086.59 68.6595 1075.46 72.5752 1067.87 68.6595C1053 60.9353 1037.2 63.9392 1048.72 70.8588C1060.24 77.7783 1046.78 80.1385 1037.86 72.6557C1028.95 65.1729 1022.3 78.0197 1003.81 67.8549C985.322 57.6901 979.211 54.0962 973.296 35.0004Z" fill="#263238"/>
<path d="M682.603 401.147L643.294 429.925L624.262 416.327L663.571 387.576L682.603 401.147Z" fill="#7F3E3B"/>
<path d="M630.995 413.002L653.958 422.684C654.368 422.843 654.675 423.102 654.819 423.41C654.964 423.719 654.934 424.053 654.736 424.347L645.551 438.266C645.322 438.621 644.984 438.937 644.56 439.192C644.136 439.448 643.637 439.637 643.096 439.747C642.556 439.856 641.988 439.884 641.431 439.827C640.873 439.771 640.341 439.632 639.869 439.42C631.657 435.826 629.438 434.297 619.008 429.899C606.826 424.776 598.264 423.918 583.746 418.178C574.951 414.718 578.492 407.987 582.696 408.899C596.123 411.581 616.439 413.217 624.729 411.929C626.941 411.715 629.186 412.1 630.995 413.002Z" fill="#263238"/>
<path opacity="0.2" d="M682.602 401.174L662.325 416.005L643.293 402.408L663.531 387.576L682.602 401.174Z" fill="black"/>
<path d="M817.033 332.488C894.328 302.53 1030.12 312.99 1030.12 258.787L944.496 238.27C944.496 238.27 831.628 258.599 775.116 293.465C716.308 329.726 650.572 390.017 650.572 390.017L678.205 409.757C678.205 409.757 751.453 372.128 817.033 332.488Z" fill="#263238"/>
<path d="M650.183 383.553L641.504 393.825L675.754 413.564L687.858 406.001L650.183 383.553Z" fill="white"/>
<path d="M960.841 110.767C952.318 112.993 944.144 114.71 935.699 116.48C927.253 118.25 918.807 119.725 910.128 121.039C901.355 122.445 892.483 123.538 883.546 124.311C873.789 125.28 863.903 125.469 854.084 124.875H853.111C850.617 124.692 848.232 124.074 846.183 123.078C842.293 121.209 839.094 118.738 836.842 115.863C834.952 113.583 833.636 111.098 832.95 108.514C832.001 104.604 831.896 100.618 832.639 96.6868C833.854 90.2108 836.126 83.85 839.411 77.7251C842.38 71.9712 845.824 66.3389 849.725 60.8553C853.617 55.4913 857.508 50.1273 862.335 44.9779C863.525 43.6254 865.397 42.6225 867.592 42.1605C869.788 41.6985 872.153 41.8098 874.237 42.4731C876.321 43.1364 877.978 44.3053 878.891 45.7567C879.804 47.2081 879.909 48.8403 879.187 50.3419V50.5296C876.813 55.8936 874.322 61.2576 872.259 66.8093C870.196 72.3611 868.134 77.5373 866.616 82.9013C865.046 87.9022 864.16 92.9934 863.969 98.1083C863.881 99.9734 864.21 101.837 864.942 103.633C865.137 103.848 865.215 104.223 865.37 104.25C865.526 104.277 865.37 104.518 865.604 104.25C865.434 103.916 865.105 103.633 864.67 103.445L856.886 101.568C864.029 101.474 871.144 100.918 878.136 99.9052C885.92 98.886 893.704 97.5987 901.488 96.1504C909.272 94.7021 917.056 93.1466 925.035 91.4837C933.013 89.8209 940.836 88.0508 948.387 86.4148H948.659C953.312 85.3776 958.369 85.6362 962.749 87.1354C967.129 88.6346 970.483 91.2552 972.095 94.4369C973.707 97.6185 973.448 101.108 971.374 104.16C969.3 107.212 965.575 109.584 960.997 110.767H960.841Z" fill="#7F3E3B"/>
<path d="M873.076 58.9777L897.129 51.9508L877.124 36.5293C877.124 36.5293 854.628 44.1998 860.233 53.3454L873.076 58.9777Z" fill="#7F3E3B"/>
<path d="M906.665 40.3649L897.986 33.2576C896.925 32.3753 895.451 31.7749 893.818 31.5596C892.185 31.3443 890.493 31.5274 889.035 32.0775L877.125 36.5296L897.13 51.9511L905.537 47.4722C906.303 47.0643 906.943 46.554 907.417 45.9719C907.891 45.3897 908.19 44.7476 908.295 44.084C908.4 43.4204 908.31 42.749 908.03 42.11C907.75 41.4709 907.286 40.8774 906.665 40.3649Z" fill="#7F3E3B"/>
<path d="M964.189 80.9158C939.98 78.7165 901.021 94.7013 901.021 94.7013C901.351 107.249 904.583 119.679 910.596 131.525C925.373 129.987 939.633 126.645 952.707 121.655C959.946 119.027 992.756 83.5978 964.189 80.9158Z" fill="#F0F0F0"/>
<path d="M961.62 80.728C993.943 82.8741 1025.76 87.7564 1056.35 95.2645C1063.37 97.1014 1069.36 100.431 1073.46 104.77C1077.55 109.11 1079.53 114.235 1079.12 119.403C1076.08 167.379 1062.87 214.79 1039.89 260.127C1026.19 260.476 967.341 256.533 938.696 249.399C935.543 248.621 934.259 239.047 934.259 239.047C929.186 238.878 924.117 239.417 919.353 240.629C909.635 237.329 901.282 232.394 895.066 226.28C909.117 210.966 915.733 175.805 919.858 146.062C920.325 134.341 921.065 113.046 929.121 101.111C936.438 89.8737 943.405 79.7625 961.62 80.728Z" fill="white"/>
<path d="M984.972 114.039C984.466 115.085 983.259 115.756 982.364 115.514C981.469 115.273 981.08 114.281 981.586 113.261C982.091 112.242 983.298 111.545 984.232 111.786C985.166 112.028 985.361 113.1 984.972 114.039Z" fill="#4E52AC"/>
<path d="M1026.27 56.9395C1023.39 69.5449 1020.93 84.3495 1030.39 93.7902C1022.14 101.219 1004 106.556 986.257 108.863C975.904 99.2078 978.084 90.5181 983.572 85.6637C994.236 81.1043 993.34 73.4337 993.457 68.1234L1026.27 56.9395Z" fill="#7F3E3B"/>
<path d="M986.257 108.863C984.172 106.662 982.927 104.135 982.637 101.514C982.637 97.6789 972.596 99.7977 972.596 99.7977C975.957 103.57 980.659 106.69 986.257 108.863Z" fill="#E0E0E0"/>
<path d="M986.256 108.862C986.922 107.515 988.171 106.341 989.833 105.498C991.496 104.654 993.494 104.181 995.558 104.142C1000.43 103.915 1005.31 104.446 1009.84 105.698C1009.84 105.698 995.752 109.452 986.256 108.862Z" fill="#E0E0E0"/>
<path opacity="0.2" d="M1018.48 61.7932C1018.72 60.9886 1018.87 60.184 1018.99 59.4062L993.456 68.1496C993.805 71.8237 993.199 75.5113 991.666 79.0385C1003.58 76.4906 1016.54 69.4101 1018.48 61.7932Z" fill="black"/>
<path d="M1040.43 40.686C1030.59 56.1343 1025.92 65.5213 1010.04 70.6171C986.1 78.2877 961.697 63.6439 964.694 46.4791C967.379 30.9772 983.064 8.34108 1008.83 7.88514C1014.54 7.78722 1020.18 8.68846 1025.25 10.5045C1030.31 12.3205 1034.62 14.9921 1037.78 18.269C1040.94 21.546 1042.84 25.3214 1043.3 29.2419C1043.76 33.1624 1042.78 37.0999 1040.43 40.686Z" fill="#7F3E3B"/>
<path d="M991.666 9.38753C988.086 19.5255 1030.39 24.5945 1030.39 24.5945C1030.39 24.5945 1007.31 51.4145 1034.28 50.2612C1061.26 49.108 1062.66 26.7669 1041.72 13.0887C1027.01 3.48712 1002.17 0.188272 991.666 9.38753Z" fill="#263238"/>
<path d="M976.333 48.3027C985.686 48.5802 994.979 49.4783 1004.08 50.9847C1002.04 53.2471 998.957 54.9774 995.33 55.9045C991.703 56.8316 987.731 56.9029 984.039 56.1074C982.752 55.9985 981.513 55.7014 980.406 55.236C979.298 54.7706 978.348 54.1476 977.619 53.4087C976.889 52.6698 976.397 51.832 976.175 50.9515C975.953 50.0709 976.007 49.1678 976.333 48.3027Z" fill="#263238"/>
<path d="M990.11 53.6139C986.136 52.8771 981.926 53.0273 978.084 54.043C979.663 55.2078 981.757 55.9808 984.039 56.2422C987.996 56.9818 992.192 56.841 996.026 55.8399C994.466 54.6672 992.385 53.8843 990.11 53.6139Z" fill="#FF5652"/>
<path d="M977.189 48.3301C977.122 48.8893 977.311 49.4488 977.73 49.9299C978.149 50.411 978.777 50.7895 979.524 51.0121C985.536 51.8731 991.642 52.3845 997.778 52.5408C998.769 52.6178 999.773 52.5315 1000.71 52.2891C1001.64 52.0466 1002.48 51.6549 1003.15 51.1461C994.618 49.7324 985.937 48.7907 977.189 48.3301Z" fill="white"/>
<path d="M1041.72 54.4185C1039.52 55.8645 1036.92 56.9954 1034.08 57.7458C1031.24 58.4961 1028.22 58.8511 1025.18 58.7902C1017 58.5756 1015.33 53.1044 1019.61 48.7059C1023.89 44.3074 1032.38 40.0162 1039.58 42.4032C1041.14 42.935 1042.48 43.7262 1043.49 44.7054C1044.5 45.6846 1045.14 46.8212 1045.35 48.0128C1045.56 49.2045 1045.34 50.4138 1044.71 51.532C1044.07 52.6501 1043.05 53.6421 1041.72 54.4185Z" fill="#7F3E3B"/>
<path d="M1009.76 36.4223C1009.1 37.7097 1007.55 38.4874 1006.3 38.1924C1005.05 37.8974 1004.66 36.5564 1005.37 35.269C1006.07 33.9817 1007.58 33.2039 1008.83 33.5257C1010.07 33.8476 1010.46 35.1349 1009.76 36.4223Z" fill="#263238"/>
<path d="M986.529 30.3869C985.828 31.6743 984.271 32.4521 983.065 32.1302C981.858 31.8084 981.43 30.521 982.092 29.2337C982.754 27.9463 984.349 27.1417 985.556 27.4635C986.762 27.7854 987.19 29.0996 986.529 30.3869Z" fill="#263238"/>
<path d="M994.196 32.4521C989.684 35.6821 984.551 38.4705 978.939 40.7395C979.828 41.7158 981.011 42.5491 982.408 43.183C983.804 43.8169 985.382 44.2367 987.035 44.4139L994.196 32.4521Z" fill="#630F0F"/>
<path d="M1018.44 30.9234C1018.63 30.9629 1018.84 30.9629 1019.03 30.9234C1019.19 30.9115 1019.34 30.8759 1019.48 30.819C1019.62 30.7621 1019.74 30.6853 1019.83 30.5937C1019.93 30.5021 1019.99 30.398 1020.02 30.2883C1020.05 30.1786 1020.04 30.0659 1020 29.9579C1019.68 28.6875 1018.93 27.4884 1017.79 26.4616C1016.66 25.4347 1015.19 24.6102 1013.5 24.0575C1013.22 23.9868 1012.9 23.9949 1012.63 24.0799C1012.35 24.1649 1012.14 24.3203 1012.02 24.5134C1011.96 24.6099 1011.92 24.7142 1011.92 24.82C1011.92 24.9258 1011.95 25.0309 1012.01 25.1289C1012.06 25.2268 1012.15 25.3155 1012.26 25.3895C1012.37 25.4635 1012.5 25.5213 1012.64 25.5594C1013.96 26.0163 1015.11 26.6781 1016 27.4926C1016.88 28.307 1017.48 29.252 1017.74 30.2529C1017.76 30.3979 1017.84 30.5368 1017.96 30.6548C1018.08 30.7729 1018.25 30.8657 1018.44 30.9234Z" fill="#263238"/>
<path d="M981.352 21.9121C981.521 21.969 981.708 21.9986 981.896 21.9986C982.085 21.9986 982.272 21.969 982.441 21.9121C983.584 21.2805 984.928 20.8463 986.364 20.6456C987.799 20.445 989.283 20.4838 990.692 20.7588C990.835 20.7968 990.988 20.8144 991.141 20.8105C991.294 20.8066 991.444 20.7814 991.582 20.7362C991.721 20.691 991.844 20.627 991.945 20.5479C992.047 20.4688 992.124 20.3763 992.171 20.2761C992.227 20.1777 992.252 20.0726 992.246 19.9671C992.241 19.8617 992.204 19.7582 992.138 19.6629C992.073 19.5675 991.98 19.4824 991.865 19.4126C991.75 19.3428 991.616 19.2898 991.471 19.2569C989.704 18.8835 987.833 18.8104 986.016 19.0439C984.2 19.2774 982.493 19.8106 981.04 20.5979C980.913 20.6589 980.806 20.7373 980.724 20.8282C980.643 20.919 980.59 21.0205 980.568 21.1261C980.546 21.2318 980.556 21.3394 980.597 21.4424C980.638 21.5453 980.709 21.6413 980.807 21.7243C980.956 21.824 981.146 21.8896 981.352 21.9121Z" fill="#263238"/>
<path d="M1081.1 115.139C1083.28 123.185 1084.76 130.694 1086.28 138.499C1087.8 146.304 1088.73 154.108 1089.59 161.993C1090.45 169.878 1090.91 177.844 1090.8 185.943C1090.83 194.441 1089.65 202.921 1087.29 211.262L1087.1 211.878C1086.62 213.456 1085.6 214.93 1084.1 216.17C1078.24 220.919 1071.94 225.398 1065.23 229.58C1058.8 233.656 1052.03 237.357 1045.3 241.032C1038.57 244.706 1031.56 248.032 1024.52 251.331C1017.47 254.629 1010.35 257.714 1002.76 260.664C1000.78 261.446 998.458 261.704 996.225 261.387C993.993 261.071 992.005 260.203 990.636 258.947C989.268 257.69 988.613 256.133 988.796 254.567C988.978 253.001 989.985 251.535 991.628 250.446L1009.18 238.564C1014.98 234.595 1020.86 230.518 1026.42 226.603C1037.52 218.968 1047.8 210.784 1057.17 202.116L1053.94 207.024C1055.1 200.18 1055.43 193.281 1054.91 186.399C1054.44 179.131 1053.63 171.729 1052.58 164.327C1051.53 156.924 1050.12 149.441 1048.68 141.986C1047.24 134.53 1045.61 126.993 1044.05 119.752V119.591C1043.41 116.277 1044.67 112.922 1047.55 110.232C1050.43 107.542 1054.71 105.728 1059.49 105.171C1064.28 104.615 1069.19 105.36 1073.19 107.249C1077.19 109.139 1079.97 112.025 1080.95 115.3L1081.1 115.139Z" fill="#7F3E3B"/>
<path d="M1057.64 95.6944C1094.22 106.101 1090.09 141.798 1090.09 141.798C1076.75 153.438 1061.92 162.53 1042.57 163.656C1032.18 155.792 1026.6 145.46 1027.01 134.825C1027.16 120.583 1030.9 88.1043 1057.64 95.6944Z" fill="white"/>
<path d="M1005.48 244.679L980.574 245.725L990.693 265.169C990.693 265.169 1013.11 262.326 1012.84 253.878L1005.48 244.679Z" fill="#7F3E3B"/>
<path d="M963.215 259.055L968.43 265.438C969.434 266.673 971.042 267.621 972.968 268.112C974.894 268.604 977.01 268.607 978.939 268.12L990.615 265.17L980.496 245.726L966.601 250.848C965.589 251.229 964.698 251.744 963.978 252.365C963.259 252.985 962.726 253.698 962.411 254.462C962.096 255.226 962.005 256.026 962.143 256.815C962.281 257.603 962.645 258.365 963.215 259.055Z" fill="#7F3E3B"/>
<path d="M1026.38 86.4141C1025.33 90.2761 1020.62 103.123 995.559 104.142C1004.28 105.993 1004.7 121.495 1004.7 121.495C1004.7 121.495 1031.95 105.778 1034.25 91.7512C1033.47 88.0769 1026.38 86.4141 1026.38 86.4141Z" fill="#4E52AC"/>
<path d="M990.421 80.1924C989.409 83.9472 981.119 90.3035 982.637 101.648C973.88 99.9051 960.92 109.051 960.92 109.051C963.97 99.1045 970.503 89.8233 979.952 82.0162C983.203 80.883 986.779 80.2602 990.421 80.1924Z" fill="#4E52AC"/>
</svg>
