<svg width="2629" height="584" viewBox="0 0 2629 584" fill="none" xmlns="http://www.w3.org/2000/svg">
<path d="M2629 479.5C2629 606.969 2407.86 590.696 2099.6 568.011C1959.11 557.671 1800.51 546 1636.5 546C1112.66 546 0 243.568 0 58C0 -37.0871 188.916 3.21409 450.101 58.9321C698.632 111.951 1012.6 178.929 1291.5 156.5C1815.34 156.5 2629 293.932 2629 479.5Z" fill="#8E66FF"/>
<path d="M2629 479.5C2629 606.969 2407.86 590.696 2099.6 568.011C1959.11 557.671 1800.51 546 1636.5 546C1112.66 546 0 243.568 0 58C0 -37.0871 188.916 3.21409 450.101 58.9321C698.632 111.951 1012.6 178.929 1291.5 156.5C1815.34 156.5 2629 293.932 2629 479.5Z" stroke="black"/>
</svg>
