<svg width="3840" height="2098" viewBox="0 0 3840 2098" fill="none" xmlns="http://www.w3.org/2000/svg">
<g clip-path="url(#clip0_38_36)">
<path d="M3840 0H0V2098H3840V0Z" fill="white"/>
<g clip-path="url(#clip1_38_36)">
<path d="M295.291 1637.52L298.784 1631.87L303.236 1634.51L299.743 1640.16L295.291 1637.52ZM248.58 1663.86L253.032 1666.5L256.525 1660.85L252.073 1658.21L248.58 1663.86ZM224.745 1672.89L229.197 1675.53L232.69 1669.88L228.238 1667.24L224.745 1672.89ZM228.579 1706.04L233.031 1708.68L236.524 1703.03L232.072 1700.39L228.579 1706.04ZM266.046 1635.62L270.498 1638.26L273.991 1632.61L269.539 1629.97L266.046 1635.62ZM174.818 1635.57L179.269 1638.21L182.762 1632.56L178.311 1629.92L174.818 1635.57ZM163.038 1605.43L167.49 1608.07L170.983 1602.42L166.532 1599.78L163.038 1605.43ZM123.996 1698.08L128.448 1700.72L131.941 1695.07L127.489 1692.43L123.996 1698.08ZM176.117 1682.66L180.569 1685.3L184.062 1679.65L179.61 1677.01L176.117 1682.66ZM162.315 1724.66C163.279 1723.1 163.064 1721.24 161.836 1720.51C160.607 1719.78 158.827 1720.46 157.863 1722.02C156.899 1723.58 157.114 1725.43 158.342 1726.16C159.571 1726.89 161.351 1726.21 162.315 1724.66ZM154.849 1731.81C151.163 1729.62 150.516 1724.06 153.411 1719.38C156.307 1714.69 161.643 1712.68 165.329 1714.86C169.015 1717.05 169.662 1722.61 166.767 1727.29C163.871 1731.98 158.535 1733.99 154.849 1731.81ZM155.605 1666.64C156.569 1665.08 156.354 1663.23 155.126 1662.5C153.897 1661.77 152.117 1662.44 151.153 1664C150.189 1665.56 150.404 1667.42 151.633 1668.15C152.861 1668.87 154.641 1668.2 155.605 1666.64ZM148.139 1673.79C144.453 1671.61 143.806 1666.05 146.702 1661.36C149.597 1656.68 154.933 1654.66 158.619 1656.85C162.305 1659.03 162.953 1664.6 160.057 1669.28C157.161 1673.96 151.825 1675.98 148.139 1673.79ZM264.023 1707.75C264.987 1706.2 264.772 1704.34 263.543 1703.61C262.315 1702.88 260.535 1703.56 259.571 1705.12C258.607 1706.67 258.821 1708.53 260.05 1709.26C261.279 1709.99 263.059 1709.31 264.023 1707.75ZM256.557 1714.91C252.871 1712.72 252.223 1707.16 255.119 1702.48C258.015 1697.79 263.351 1695.78 267.037 1697.96C270.723 1700.15 271.37 1705.71 268.474 1710.39C265.579 1715.08 260.243 1717.09 256.557 1714.91ZM292.245 1593.25C293.209 1591.69 292.994 1589.84 291.765 1589.11C290.537 1588.38 288.757 1589.06 287.793 1590.61C286.829 1592.17 287.044 1594.03 288.272 1594.76C289.501 1595.49 291.281 1594.81 292.245 1593.25ZM284.779 1600.41C281.093 1598.22 280.445 1592.66 283.341 1587.98C286.237 1583.29 291.573 1581.28 295.259 1583.46C298.945 1585.65 299.592 1591.21 296.696 1595.89C293.801 1600.58 288.465 1602.59 284.779 1600.41Z" fill="black"/>
<path d="M177.344 1599.97C180 1600.99 182.967 1600.56 185.626 1599.05L204.024 1632.89C202.873 1634.19 201.879 1635.73 201.152 1637.49C198.357 1644.24 200.428 1651.39 205.785 1653.45C206.342 1653.66 206.913 1653.78 207.495 1653.86L207.059 1672.16C204.33 1673.69 201.927 1676.34 200.506 1679.77C197.712 1686.52 199.782 1693.67 205.139 1695.73C206.074 1696.09 207.053 1696.21 208.035 1696.23L208.869 1708.36C206.178 1709.89 203.8 1712.54 202.392 1715.94C199.597 1722.69 201.668 1729.84 207.025 1731.9C211.16 1733.49 216.024 1731.56 219.324 1727.5L238.307 1738.02C236.122 1744.46 238.195 1750.99 243.275 1752.94C248.632 1755.01 255.239 1751.2 258.034 1744.45C260.829 1737.7 258.758 1730.55 253.401 1728.49C249.475 1726.97 244.885 1728.64 241.608 1732.29L222.364 1721.62C224.143 1715.44 222.037 1709.33 217.151 1707.44C216.244 1707.1 215.295 1706.97 214.34 1706.94L213.502 1694.77C216.161 1693.23 218.505 1690.6 219.897 1687.23C222.692 1680.48 220.622 1673.34 215.265 1671.27C214.383 1670.93 213.458 1670.81 212.527 1670.77L212.952 1653.04C216.094 1651.65 218.946 1648.81 220.543 1644.95C222.338 1640.62 222.107 1636.14 220.31 1632.93L229.823 1620.04C230.106 1620.18 230.364 1620.37 230.669 1620.49C236.026 1622.55 242.633 1618.75 245.428 1611.99C248.223 1605.24 246.152 1598.1 240.795 1596.03C238.347 1595.09 235.646 1595.43 233.152 1596.66L220.209 1577.12C220.741 1576.3 221.227 1575.42 221.62 1574.48C224.414 1567.73 222.344 1560.58 216.987 1558.52C211.63 1556.45 205.023 1560.26 202.229 1567.01C201.327 1569.19 200.979 1571.4 201.04 1573.48L191.535 1578.95C190.545 1577.41 189.201 1576.18 187.47 1575.51C182.113 1573.45 175.506 1577.26 172.711 1584.01C169.917 1590.76 171.987 1597.91 177.344 1599.97ZM250.87 1734.6C253.541 1735.63 254.581 1739.21 253.186 1742.58C251.791 1745.95 248.478 1747.86 245.807 1746.83C243.136 1745.8 242.096 1742.22 243.49 1738.85C244.885 1735.48 248.199 1733.57 250.87 1734.6ZM216.935 1721.54C215.54 1724.91 212.227 1726.82 209.556 1725.79C206.885 1724.76 205.845 1721.18 207.24 1717.81C208.635 1714.44 211.948 1712.53 214.619 1713.56C217.29 1714.59 218.33 1718.17 216.935 1721.54ZM215.05 1685.37C213.655 1688.74 210.341 1690.65 207.67 1689.62C204.999 1688.59 203.959 1685.01 205.354 1681.64C206.749 1678.27 210.062 1676.36 212.733 1677.39C215.405 1678.42 216.445 1682 215.05 1685.37ZM206 1639.35C207.395 1635.98 210.708 1634.08 213.379 1635.1C216.05 1636.13 217.09 1639.72 215.695 1643.08C214.301 1646.45 210.987 1648.36 208.316 1647.33C205.645 1646.31 204.605 1642.72 206 1639.35ZM238.264 1602.15C240.935 1603.18 241.975 1606.76 240.58 1610.13C239.185 1613.5 235.872 1615.41 233.201 1614.38C230.53 1613.35 229.49 1609.77 230.885 1606.4C232.279 1603.03 235.593 1601.12 238.264 1602.15ZM228.317 1600.68C227.426 1601.83 226.632 1603.09 226.037 1604.53C224.3 1608.73 224.449 1613.06 226.087 1616.25L216.462 1629.29C216.273 1629.2 216.11 1629.07 215.911 1628.99C213.715 1628.14 211.318 1628.33 209.046 1629.25L190.261 1594.71C190.964 1593.72 191.609 1592.66 192.102 1591.47C193.075 1589.12 193.421 1586.74 193.284 1584.53L202.564 1579.19C203.565 1580.9 205 1582.26 206.861 1582.97C209.716 1584.07 212.912 1583.47 215.714 1581.67L228.317 1600.68ZM214.456 1564.63C217.127 1565.66 218.167 1569.24 216.772 1572.61C215.377 1575.98 212.064 1577.89 209.393 1576.86C206.721 1575.83 205.681 1572.25 207.076 1568.88C208.471 1565.51 211.784 1563.6 214.456 1564.63ZM184.938 1581.62C187.61 1582.65 188.65 1586.24 187.255 1589.6C185.86 1592.97 182.547 1594.88 179.875 1593.85C177.204 1592.83 176.164 1589.24 177.559 1585.87C178.954 1582.5 182.267 1580.6 184.938 1581.62Z" fill="#0000FF"/>
</g>
<path d="M3058.2 2188.17L3059 2230.86L3016.39 2231.66L3015.59 2188.97L3058.2 2188.17ZM3265.65 1885.33L3223.04 1886.12L3223.84 1928.82L3266.45 1928.02L3265.65 1885.33ZM3391.08 1754.85L3348.47 1755.65L3349.27 1798.35L3391.88 1797.55L3391.08 1754.85ZM3217.45 1587.27L3174.85 1588.06L3175.64 1630.76L3218.25 1629.96L3217.45 1587.27ZM3269.64 2098.8L3227.03 2099.59L3227.83 2142.29L3270.44 2141.49L3269.64 2098.8ZM3903.17 1787.99L3860.56 1788.78L3861.36 1831.48L3903.97 1830.68L3903.17 1787.99ZM4118.61 1912.09L4076 1912.88L4076.8 1955.58L4119.4 1954.78L4118.61 1912.09ZM3978.81 1274.07L3936.2 1274.86L3937 1317.56L3979.61 1316.76L3978.81 1274.07ZM3685.34 1535.81L3642.73 1536.6L3643.53 1579.3L3686.14 1578.5L3685.34 1535.81ZM3594.94 1259.89C3595.16 1271.67 3604.88 1281.06 3616.64 1280.84C3628.4 1280.62 3637.77 1270.88 3637.55 1259.09C3637.32 1247.31 3627.6 1237.92 3615.84 1238.14C3604.08 1238.36 3594.72 1248.11 3594.94 1259.89ZM3615.04 1195.45C3650.32 1194.79 3679.49 1222.9 3680.15 1258.3C3680.81 1293.69 3652.72 1322.87 3617.44 1323.53C3582.16 1324.19 3552.99 1296.08 3552.33 1260.69C3551.67 1225.29 3579.76 1196.11 3615.04 1195.45ZM3898.78 1553.17C3899 1564.95 3908.72 1574.34 3920.48 1574.12C3932.24 1573.9 3941.61 1564.16 3941.39 1552.37C3941.17 1540.59 3931.45 1531.2 3919.69 1531.42C3907.93 1531.64 3898.56 1541.39 3898.78 1553.17ZM3918.89 1488.73C3954.17 1488.07 3983.33 1516.18 3984 1551.58C3984.66 1586.97 3956.56 1616.15 3921.28 1616.81C3886 1617.47 3856.83 1589.36 3856.17 1553.97C3855.51 1518.57 3883.61 1489.39 3918.89 1488.73ZM2963.8 1698.78C2964.02 1710.56 2973.75 1719.95 2985.51 1719.73C2997.27 1719.51 3006.63 1709.77 3006.41 1697.98C3006.19 1686.2 2996.47 1676.82 2984.71 1677.04C2972.95 1677.26 2963.58 1687 2963.8 1698.78ZM2983.91 1634.34C3019.19 1633.68 3048.36 1661.79 3049.02 1697.19C3049.68 1732.58 3021.58 1761.76 2986.3 1762.42C2951.03 1763.08 2921.86 1734.97 2921.2 1699.58C2920.53 1664.18 2948.63 1635 2983.91 1634.34ZM3275.63 2419C3275.85 2430.79 3285.57 2440.17 3297.33 2439.95C3309.09 2439.73 3318.46 2429.99 3318.24 2418.2C3318.02 2406.42 3308.29 2397.04 3296.54 2397.26C3284.78 2397.48 3275.41 2407.22 3275.63 2419ZM3295.74 2354.56C3331.02 2353.9 3360.18 2382.01 3360.85 2417.41C3361.51 2452.8 3333.41 2481.98 3298.13 2482.64C3262.85 2483.3 3233.68 2455.19 3233.02 2419.8C3232.36 2384.41 3260.46 2355.22 3295.74 2354.56Z" fill="#8E66FF" fill-opacity="0.22"/>
<path d="M3993.18 2042.56C3969.83 2042.99 3948.87 2052.87 3933.73 2068.4L3685.04 1911.86C3689.49 1901.28 3691.96 1889.61 3691.73 1877.36C3690.85 1830.23 3652 1792.68 3604.92 1793.56C3600.02 1793.66 3595.34 1794.38 3590.67 1795.28L3534.48 1685.12C3550.08 1669.28 3559.56 1647.54 3559.12 1623.59C3558.24 1576.45 3519.39 1538.91 3472.3 1539.79C3464.08 1539.94 3456.31 1541.63 3448.85 1543.95L3403.13 1473.65C3418.43 1457.9 3427.74 1436.24 3427.3 1412.51C3426.42 1365.37 3387.57 1327.83 3340.49 1328.71C3304.14 1329.39 3273.77 1352.89 3262.1 1385.23L3084.78 1369.16C3080.34 1325.42 3043.48 1291.56 2998.83 1292.39C2951.75 1293.27 2914.33 1332.24 2915.21 1379.37C2916.09 1426.51 2954.94 1464.05 3002.02 1463.17C3036.53 1462.52 3065.72 1441.31 3078.54 1411.47L3258.29 1427.75C3264.98 1469.01 3300.73 1500.29 3343.68 1499.49C3351.65 1499.34 3359.21 1497.74 3366.5 1495.56L3412.4 1566.11C3397.35 1581.81 3388.25 1603.29 3388.68 1626.77C3389.57 1673.91 3428.42 1711.45 3475.5 1710.57C3483.25 1710.42 3490.64 1708.92 3497.76 1706.82L3552.23 1813.64C3533.05 1829.63 3520.8 1853.61 3521.3 1880.55C3521.86 1910.82 3538.17 1936.95 3562.14 1951.66L3532.35 2051.94C3529.74 2051.78 3527.18 2051.27 3524.49 2051.32C3477.41 2052.2 3439.99 2091.17 3440.87 2138.3C3441.75 2185.44 3480.6 2222.98 3527.69 2222.1C3549.2 2221.7 3568.48 2213.05 3583.27 2199.58L3744.35 2284.25C3743.02 2290.46 3742.2 2296.88 3742.32 2303.5C3743.2 2350.64 3782.05 2388.18 3829.13 2387.3C3876.22 2386.42 3913.63 2347.45 3912.75 2300.32C3912.47 2285.12 3907.9 2271.06 3900.68 2258.81L3954.53 2202.8C3967.02 2209.57 3981.16 2213.62 3996.37 2213.33C4043.45 2212.45 4080.87 2173.49 4079.99 2126.35C4079.11 2079.22 4040.26 2041.68 3993.18 2042.56ZM3001.22 1420.47C2977.75 1420.91 2958.26 1402.1 2957.82 1378.58C2957.38 1355.05 2976.15 1335.52 2999.63 1335.09C3023.1 1334.65 3042.59 1353.46 3043.03 1376.98C3043.47 1400.51 3024.7 1420.03 3001.22 1420.47ZM3299.48 1414.9C3299.04 1391.37 3317.81 1371.84 3341.29 1371.41C3364.76 1370.97 3384.25 1389.78 3384.69 1413.3C3385.13 1436.83 3366.36 1456.35 3342.88 1456.79C3319.41 1457.23 3299.92 1438.42 3299.48 1414.9ZM3431.29 1625.98C3430.85 1602.45 3449.63 1582.92 3473.1 1582.49C3496.58 1582.05 3516.07 1600.86 3516.51 1624.38C3516.95 1647.91 3498.18 1667.43 3474.7 1667.87C3451.22 1668.31 3431.73 1649.5 3431.29 1625.98ZM3649.12 1878.16C3649.56 1901.68 3630.79 1921.21 3607.31 1921.65C3583.84 1922.09 3564.35 1903.27 3563.91 1879.75C3563.47 1856.23 3582.24 1836.7 3605.72 1836.26C3629.19 1835.82 3648.68 1854.63 3649.12 1878.16ZM3526.89 2179.4C3503.41 2179.84 3483.92 2161.03 3483.48 2137.51C3483.04 2113.98 3501.81 2094.46 3525.29 2094.02C3548.77 2093.58 3568.26 2112.39 3568.7 2135.91C3569.14 2159.44 3550.36 2178.97 3526.89 2179.4ZM3606.64 2163.69C3609.62 2154.67 3611.49 2145.15 3611.3 2135.12C3610.76 2105.83 3595.53 2080.32 3572.83 2065.37L3602.99 1963.92C3604.69 1963.98 3606.36 1964.37 3608.11 1964.34C3627.41 1963.98 3644.89 1956.99 3659 1945.88L3912.91 2105.69C3910.83 2113.33 3909.4 2121.21 3909.56 2129.54C3909.87 2145.93 3915.01 2161 3923.22 2173.83L3870.62 2228.5C3857.52 2220.76 3842.3 2216.21 3825.94 2216.52C3800.84 2216.99 3778.73 2228.47 3763.45 2246.09L3606.64 2163.69ZM3828.34 2344.6C3804.86 2345.04 3785.37 2326.23 3784.93 2302.71C3784.49 2279.18 3803.26 2259.65 3826.74 2259.21C3850.22 2258.78 3869.71 2277.59 3870.15 2301.11C3870.59 2324.64 3851.81 2344.16 3828.34 2344.6ZM3995.57 2170.64C3972.1 2171.08 3952.61 2152.27 3952.17 2128.74C3951.73 2105.22 3970.5 2085.69 3993.98 2085.25C4017.45 2084.81 4036.94 2103.62 4037.38 2127.15C4037.82 2150.67 4019.05 2170.2 3995.57 2170.64Z" fill="#2B4099" fill-opacity="0.32"/>
<path d="M-362.941 -711C-89.502 -202.5 1725.27 -174.381 2011.39 152.014C2297.5 478.126 1844.7 1175.27 2141.06 1574.54C2438 1973.8 3605.64 2076.1 4773.29 2178.69L-362.941 2354.25L-362.941 -711Z" fill="#8E66FF"/>
<path d="M3911.49 49C3911.49 84.0475 3937.64 124.015 3962.97 162.72C4025.06 257.586 4082.17 344.864 3737 333.5C3556.24 333.5 3334.97 163.963 3194.65 56.4513C3173.86 40.5214 3154.84 25.9532 3138 13.5C2967.19 -129 3116.34 -252 3323.88 -252C3531.43 -252 3911.49 -71.9504 3911.49 49Z" fill="#8E66FF"/>
<path d="M3911.49 49C3911.49 84.0475 3937.64 124.015 3962.97 162.72C4025.06 257.586 4082.17 344.864 3737 333.5C3556.24 333.5 3334.97 163.963 3194.65 56.4513C3173.86 40.5214 3154.84 25.9532 3138 13.5C2967.19 -129 3116.34 -252 3323.88 -252C3531.43 -252 3911.49 -71.9504 3911.49 49Z" stroke="black"/>
</g>
<defs>
<clipPath id="clip0_38_36">
<rect width="3840" height="2098" fill="white"/>
</clipPath>
<clipPath id="clip1_38_36">
<rect width="170" height="207" fill="white" transform="translate(349.658 1680.18) rotate(140.809)"/>
</clipPath>
</defs>
</svg>
