<svg width="1405" height="2021" viewBox="0 0 1405 2021" fill="none" xmlns="http://www.w3.org/2000/svg">
<g clip-path="url(#clip0_31_991)">
<path d="M1198.01 1607.4C1472.13 1323.45 1472.13 863.08 1198.01 579.132C923.893 295.185 479.457 295.185 205.338 579.132C-68.7821 863.08 -68.7821 1323.45 205.338 1607.4C479.457 1891.34 923.893 1891.34 1198.01 1607.4Z" fill="#2F00B5"/>
<path opacity="0.7" d="M1198.01 1607.4C1472.13 1323.45 1472.13 863.08 1198.01 579.132C923.893 295.185 479.457 295.185 205.338 579.132C-68.7821 863.08 -68.7821 1323.45 205.338 1607.4C479.457 1891.34 923.893 1891.34 1198.01 1607.4Z" fill="white"/>
<g opacity="0.2">
<path d="M1387.34 1249.54L1376.42 1224.51L1336.38 1219.99L1304.28 1199.2L1270.74 1180.48L1242.87 1139.73L1204.26 1105.61L1185.03 1162.73L1205.38 1195.69L1239.61 1215.37L1256.9 1252.42L1285.51 1275.23L1316.17 1288.85L1305.72 1327.06L1294.99 1368.34L1287.23 1414.06L1244.54 1411.27L1212.86 1436.91L1177.83 1450L1142.29 1438.7L1111.63 1410.3L1074 1383.55L1032.61 1360.84L1009.39 1320.32L994.289 1286.35L975.196 1250.69L974.499 1210.27L973.523 1169.9L956.428 1134.96L943.235 1193.43L929.81 1228.89L930.599 1267.97L916.245 1304.44L898.592 1347.75L889.302 1391.06L913.829 1406.7L953.037 1409.78L922.47 1448.56L894.597 1484.46L865.006 1519.15L827.842 1548.7L785.29 1567.22L744.224 1588.69L696.747 1597.44L662.696 1633.34L615.173 1641.57L572.482 1664.09L528.489 1681.89L481.245 1682.37L448.262 1665.2L401.343 1664.57L421.737 1626.94L432.886 1593.64L446.822 1546.2L454.162 1495.67L463.453 1447.02L476.367 1406.5L491.465 1365.12L477.529 1320.18L497.597 1277.16L474.834 1240.44L449.517 1208.78L416.998 1182.79L396.651 1147.38L381.182 1111.33L369.847 1073.13L364.087 1031.74L350.476 987.811L387.221 951.865L409.148 908.124L447.658 883.102L484.543 886.807L526.352 891.908L567.604 900.377L612.711 892.774L647.738 930.741L692.938 945.658L733.214 970.007L773.212 994.981L813.674 1019.86L842.289 1061.53L885.957 1081.98L926.744 1077.17L966.37 1080.97L1005.39 1089.73L1052.22 1105.18L1037.44 1045.8L1022.77 996.039L993.034 980.641L968.692 946.332L933.665 932.714L901.147 917.411L897.013 880.888L886.189 844.606L877.734 806.11L832.952 784.167L785.197 773.436L742.459 764.967L711.241 789.027L670.268 792.011L625.161 799.133L574.061 753.226L605 722.333L603.931 680.132L624.79 648.132L673.892 625.275L707.804 586.009L747.476 594.719L784.965 619.26H830.397L873.461 601.648L918.428 608.24L953.92 587.597L978.68 556.511L1005.86 528.698L1047.25 522.587L1086.27 542.509H1127.24L1165.38 550.496L1176.67 557.714C1267.12 643.88 1334.17 753.109 1371.14 874.502C1408.1 995.895 1413.69 1125.21 1387.34 1249.54Z" fill="#2F00B5"/>
<path d="M754.212 1634.16L733.679 1664.57L688.711 1674.68L653.452 1687.86L703.855 1705.09H747.383L783.571 1676.75L788.449 1654.42L754.212 1634.16Z" fill="#2F00B5"/>
<path d="M228.347 1628.96L227.51 1629.39C140.538 1546.79 75.038 1442.83 37.0469 1327.11L33.5629 1308.19L27.756 1296.45C-7.33915 1172.41 -9.68129 1040.88 20.9737 915.583L29.4748 947.535L39.6948 992.383L65.57 1034.34L63.9441 1083.38L86.01 1126.25L90.6554 1173.02L93.5356 1211.52L88.1933 1249.63L66.7778 1285.19L80.2496 1331.34L102.13 1371.14L115.601 1405.59L121.222 1453.04L144.45 1486.14L153.741 1526.76L179.941 1558.37L198.058 1594.32L228.347 1628.96Z" fill="#2F00B5"/>
<path d="M803.361 399.737L775.86 411.526L740.74 432.411L705.016 452.044L668.643 469.607L628.32 476.488L590.46 489.144L552.46 476.055L513.066 467.538L475.206 452.621L436.463 456.807L396.466 475.045L363.948 506.948L338.769 547.417L293.523 564.5L269.691 605.691L243.863 639.615L237.359 684.463L206.606 716.8L193.552 757.99L166.47 792.204L155.692 830.7L120.712 825.406L82.2475 817.852L55.8613 808.613C115.926 662.382 220.572 540.553 353.799 461.754C487.026 382.954 641.501 351.521 793.605 372.261L803.361 399.737Z" fill="#2F00B5"/>
</g>
<path d="M1411.77 852.98C1305.21 947.054 1066.25 910.387 1008.09 890.561C949.924 870.736 1042.83 881.467 1089.57 871.313C1136.3 861.16 1153.72 819.055 1224.01 852.065C1294.29 885.076 1294.06 894.7 1323.93 858.417C1353.8 822.135 1472.17 799.711 1411.77 852.98Z" fill="white"/>
<path d="M9.5453 1322.44C76.765 1507.89 385.827 1627.95 467.772 1644.12C549.718 1660.29 432.095 1609.47 382.621 1565.49C333.147 1521.51 339.419 1459 234.385 1450C129.351 1441.01 123.452 1452.89 110.955 1389.08C98.4592 1325.28 -28.5474 1217.39 9.5453 1322.44Z" fill="white"/>
<path d="M498.85 846.146C311.081 806.544 132.139 689.275 115.554 625.468C105.753 587.838 132.789 625.997 163.31 637.787C193.83 649.576 259.285 607.76 277.866 657.949C296.448 708.138 280.561 735.519 332.311 753.612C384.061 771.705 417.462 747.308 447.054 790.135C476.645 832.961 550.136 856.973 498.85 846.146Z" fill="white"/>
<path d="M965.951 1492.69C710.172 1476.57 452.071 1355.93 418.577 1274.65C398.834 1226.53 441.526 1272.06 484.078 1281.73C526.63 1291.4 605.742 1223.41 639.422 1286.25C673.101 1349.1 656.935 1388.46 728.707 1402.41C800.48 1416.37 840.198 1377.54 887.303 1428.54C934.408 1479.55 1035.82 1497.07 965.951 1492.69Z" fill="white"/>
<path d="M1125.89 1700.04C1014.4 1779.87 797.785 1774.24 756.487 1738.15C732.145 1716.88 788.123 1716.73 815.531 1713.65C842.939 1710.57 877.176 1653.26 909.648 1683.92C942.119 1714.57 922.516 1732.04 966.926 1718.95C1011.34 1705.86 1023.23 1671.98 1063.78 1687C1104.34 1702.01 1162.31 1673.95 1125.89 1700.04Z" fill="white"/>
<path d="M985.787 646.785C1120.51 683.645 1265.72 650.828 1290.53 602.515C1305.16 574.028 1278.87 596.452 1255.83 595.056C1232.79 593.661 1197.81 533.222 1174.53 569.12C1151.26 605.017 1155.95 634.467 1117.49 630.425C1079.02 626.383 1061.74 592.939 1032.57 618.443C1003.39 643.946 948.995 636.728 985.787 646.785Z" fill="white"/>
</g>
<defs>
<clipPath id="clip0_31_991">
<rect width="1405" height="2021" fill="white"/>
</clipPath>
</defs>
</svg>
