<?xml version="1.0" encoding="UTF-8" standalone="no"?>
<svg
   width="4797.0049"
   height="4747"
   viewBox="0 0 4797.0049 4747"
   fill="none"
   version="1.1"
   id="svg86"
   sodipodi:docname="Group35.svg"
   inkscape:version="1.2.2 (b0a8486541, 2022-12-01)"
   xmlns:inkscape="http://www.inkscape.org/namespaces/inkscape"
   xmlns:sodipodi="http://sodipodi.sourceforge.net/DTD/sodipodi-0.dtd"
   xmlns="http://www.w3.org/2000/svg"
   xmlns:svg="http://www.w3.org/2000/svg">
  <defs
     id="defs90" />
  <sodipodi:namedview
     id="namedview88"
     pagecolor="#ffffff"
     bordercolor="#000000"
     borderopacity="0.25"
     inkscape:showpageshadow="2"
     inkscape:pageopacity="0.0"
     inkscape:pagecheckerboard="0"
     inkscape:deskcolor="#d1d1d1"
     showgrid="false"
     inkscape:zoom="0.11375406"
     inkscape:cx="1837.2971"
     inkscape:cy="2123.0012"
     inkscape:window-width="1920"
     inkscape:window-height="990"
     inkscape:window-x="0"
     inkscape:window-y="0"
     inkscape:window-maximized="1"
     inkscape:current-layer="svg86" />
  <path
     d="M -35.265464,4747 C 463.69482,4745.1793 941.27757,4584.3512 1292.4508,4299.8985 1643.624,4015.4343 1839.6019,3630.6554 1837.2786,3230.2089 1834.9552,2829.7509 1634.5207,2446.4216 1280.0597,2164.5435 925.61337,1882.6654 446.17488,1725.3396 -52.770792,1727.1604 l 1.972637,341.1971 c 386.198505,-1.4033 757.302685,120.3775 1031.645355,338.553 274.3573,218.1754 429.5089,514.8862 431.3061,824.8524 1.7973,309.9547 -149.9058,607.7904 -421.70593,827.9605 -271.81478,220.1702 -641.48697,344.6647 -1027.685471,346.0679 z"
     fill="#8e66ff"
     id="path78"
     style="stroke-width:1.30176" />
  <path
     d="m -378.74513,230.85664 c 53.40465,425.12469 260.37335,809.31666 575.37087,1068.04616 315.00668,258.742 712.23785,370.8326 1104.31136,311.614 392.0735,-59.2186 746.8859,-284.8953 986.3615,-627.37533 239.4757,-342.48006 344.0042,-773.72518 290.6053,-1198.84988 l -334.0671,50.44641 c 41.3415,329.07041 -39.5764,662.85369 -224.9311,927.94238 C 1833.5396,1027.7816 1558.9116,1202.4589 1255.4351,1248.293 951.95867,1294.1271 644.49363,1207.3603 400.67405,1007.0953 156.85448,806.83041 -3.3423035,509.45551 -44.683779,180.39767 Z"
     fill="#8e66ff"
     id="path80"
     style="stroke-width:1.20018" />
  <path
     d="m 3289.702,-151.00756 c -265.66,214.529996 -434.26,527 -468.7,868.67 -34.44,341.65996 68.09,684.52996 285.04,953.17996 216.95,268.65 530.55,441.07 871.8,479.34 341.26,38.27 682.22,-60.76 947.88,-275.29 l -66.51,-82.36 c -244.06,197.09 -557.3,288.07 -870.81,252.91 -313.51,-35.15 -601.61,-193.56 -800.92,-440.37 -199.31,-246.81 -293.51,-561.8 -261.87,-875.67996 31.65,-313.89 186.53,-600.95 430.59,-798.040004 z"
     fill="#8e66ff"
     id="path82" />
  <path
     d="m 1485.7818,3354.7615 c 426.6905,92.418 882.3959,44.1774 1266.8782,-134.1038 384.4695,-178.2917 666.2151,-472.0257 783.2585,-816.5746 C 3652.9749,2059.5238 3595.722,1692.364 3376.7706,1383.37 3157.8192,1074.376 2795.1011,848.86729 2368.4107,756.44926 l -35.8769,105.6206 c 391.9917,84.91212 725.2288,292.07984 926.3778,575.95074 201.1488,283.8708 253.7407,621.1827 146.2135,937.724 -107.527,316.5516 -366.3691,586.3928 -719.5967,750.1895 -353.2148,163.7967 -771.8649,208.1085 -1163.8697,123.1964 z"
     fill="#8e66ff"
     id="path84"
     style="stroke-width:1.15698" />
</svg>
